<?xml version="1.0" standalone="no"?>
<!DOCTYPE svg PUBLIC "-//W3C//DTD SVG 1.1//EN" "http://www.w3.org/Graphics/SVG/1.1/DTD/svg11.dtd" >
<svg xmlns="http://www.w3.org/2000/svg">
<metadata>Generated by IcoMoon</metadata>
<defs>
<font id="lemonicon" horiz-adv-x="1024">
<font-face units-per-em="1024" ascent="960" descent="-64" />
<missing-glyph horiz-adv-x="1024" />
<glyph unicode="&#x20;" horiz-adv-x="512" d="" />
<glyph unicode="&#xe600;" glyph-name="home" d="M1017.382 349.974l-452.050 499.634c-14.051 15.533-32.992 24.086-53.333 24.086-0.002 0 0 0 0 0-20.339 0-39.282-8.555-53.334-24.086l-452.050-499.634c-9.485-10.485-8.675-26.674 1.808-36.158 4.899-4.432 11.043-6.616 17.168-6.616 6.982 0 13.938 2.838 18.992 8.426l109.016 120.491v-410.517c0-42.347 34.453-76.8 76.8-76.8h563.2c42.347 0 76.8 34.453 76.8 76.8v410.517l109.018-120.493c9.485-10.483 25.674-11.296 36.158-1.808 10.483 9.485 11.293 25.675 1.806 36.158zM614.4 0h-204.8v230.4c0 14.115 11.485 25.6 25.6 25.6h153.6c14.115 0 25.6-11.485 25.6-25.6v-230.4zM819.2 25.6c0-14.115-11.485-25.6-25.6-25.6h-128v230.4c0 42.349-34.451 76.8-76.8 76.8h-153.6c-42.347 0-76.8-34.451-76.8-76.8v-230.4h-128c-14.115 0-25.6 11.485-25.6 25.6v467.106l291.832 322.552c4.222 4.667 9.68 7.237 15.368 7.237s11.146-2.57 15.366-7.235l291.834-322.552v-467.107z" />
<glyph unicode="&#xe601;" glyph-name="home2" d="M25.592 358.4c-6.125 0-12.269 2.184-17.166 6.618-10.485 9.485-11.294 25.674-1.808 36.158l452.048 499.632c14.053 15.531 32.995 24.086 53.334 24.086 0 0 0 0 0 0 20.339 0 39.28-8.554 53.333-24.086l452.050-499.634c9.486-10.485 8.677-26.674-1.808-36.158-10.485-9.488-26.674-8.677-36.158 1.808l-452.050 499.635c-4.222 4.667-9.68 7.235-15.366 7.235s-11.146-2.57-15.368-7.237l-452.048-499.632c-5.053-5.587-12.010-8.426-18.992-8.426zM793.6-51.2h-563.2c-42.347 0-76.8 34.453-76.8 76.8v409.6c0 14.139 11.462 25.6 25.6 25.6s25.6-11.461 25.6-25.6v-409.6c0-14.115 11.485-25.6 25.6-25.6h563.2c14.115 0 25.6 11.485 25.6 25.6v409.6c0 14.139 11.461 25.6 25.6 25.6s25.6-11.461 25.6-25.6v-409.6c0-42.347-34.453-76.8-76.8-76.8z" />
<glyph unicode="&#xe602;" glyph-name="home3" d="M25.592 358.4c-6.125 0-12.269 2.184-17.166 6.618-10.485 9.485-11.294 25.674-1.808 36.158l452.048 499.632c14.053 15.531 32.995 24.086 53.334 24.086 0 0 0 0 0 0 20.339 0 39.28-8.554 53.333-24.086l452.050-499.634c9.486-10.485 8.677-26.674-1.808-36.158-10.485-9.488-26.674-8.677-36.158 1.808l-452.050 499.635c-4.222 4.667-9.68 7.235-15.366 7.235s-11.146-2.57-15.368-7.237l-452.048-499.632c-5.053-5.587-12.010-8.426-18.992-8.426zM793.6-51.2h-204.8c-14.139 0-25.6 11.461-25.6 25.6v179.2h-102.4v-179.2c0-14.139-11.462-25.6-25.6-25.6h-204.8c-42.347 0-76.8 34.453-76.8 76.8v409.6c0 14.139 11.462 25.6 25.6 25.6s25.6-11.461 25.6-25.6v-409.6c0-14.115 11.485-25.6 25.6-25.6h179.2v179.2c0 14.139 11.462 25.6 25.6 25.6h153.6c14.139 0 25.6-11.461 25.6-25.6v-179.2h179.2c14.115 0 25.6 11.485 25.6 25.6v409.6c0 14.139 11.461 25.6 25.6 25.6s25.6-11.461 25.6-25.6v-409.6c0-42.347-34.453-76.8-76.8-76.8z" />
<glyph unicode="&#xe603;" glyph-name="home4" d="M25.592 358.4c-6.125 0-12.269 2.184-17.166 6.618-10.485 9.485-11.294 25.674-1.808 36.158l452.048 499.632c14.053 15.531 32.995 24.086 53.334 24.086 0 0 0 0 0 0 20.339 0 39.28-8.554 53.333-24.086l151.802-167.781-0.334 60.432c-0.037 6.814 2.643 13.362 7.448 18.194 4.805 4.83 11.338 7.547 18.152 7.547h102.4c14.139 0 25.6-11.462 25.6-25.6v-229.97l146.982-162.456c9.486-10.485 8.677-26.674-1.808-36.158-10.485-9.488-26.674-8.677-36.158 1.808l-153.6 169.766c-4.259 4.707-6.618 10.829-6.618 17.176v214.234h-51.058l0.563-101.691c0.058-10.613-6.437-20.162-16.331-24.005-9.894-3.84-21.133-1.182-28.251 6.688l-196.755 217.467c-4.222 4.667-9.68 7.235-15.366 7.235s-11.146-2.57-15.368-7.237l-452.048-499.632c-5.053-5.587-12.010-8.426-18.992-8.426zM793.6-51.2h-204.8c-14.139 0-25.6 11.461-25.6 25.6v179.2h-102.4v-179.2c0-14.139-11.462-25.6-25.6-25.6h-204.8c-42.347 0-76.8 34.453-76.8 76.8v409.6c0 14.139 11.462 25.6 25.6 25.6s25.6-11.461 25.6-25.6v-409.6c0-14.115 11.485-25.6 25.6-25.6h179.2v179.2c0 14.139 11.462 25.6 25.6 25.6h153.6c14.139 0 25.6-11.461 25.6-25.6v-179.2h179.2c14.115 0 25.6 11.485 25.6 25.6v409.6c0 14.139 11.461 25.6 25.6 25.6s25.6-11.461 25.6-25.6v-409.6c0-42.347-34.453-76.8-76.8-76.8z" />
<glyph unicode="&#xe604;" glyph-name="home5" d="M25.592 358.4c-6.125 0-12.269 2.184-17.166 6.618-10.485 9.485-11.294 25.674-1.808 36.158l452.048 499.632c14.053 15.531 32.995 24.086 53.334 24.086 0 0 0 0 0 0 20.339 0 39.28-8.554 53.333-24.086l151.802-167.781-0.334 60.432c-0.037 6.814 2.643 13.362 7.448 18.194 4.805 4.83 11.338 7.547 18.152 7.547h102.4c14.139 0 25.6-11.462 25.6-25.6v-229.97l146.982-162.456c9.486-10.485 8.677-26.674-1.808-36.158-10.485-9.488-26.674-8.677-36.158 1.808l-153.6 169.766c-4.259 4.707-6.618 10.829-6.618 17.176v214.234h-51.058l0.563-101.691c0.058-10.613-6.437-20.162-16.331-24.005-9.894-3.84-21.133-1.182-28.251 6.688l-196.755 217.467c-4.222 4.667-9.68 7.235-15.366 7.235s-11.146-2.57-15.368-7.237l-452.048-499.632c-5.053-5.587-12.010-8.426-18.992-8.426zM793.6-51.2h-563.2c-42.347 0-76.8 34.453-76.8 76.8v409.6c0 14.139 11.462 25.6 25.6 25.6s25.6-11.461 25.6-25.6v-409.6c0-14.115 11.485-25.6 25.6-25.6h563.2c14.115 0 25.6 11.485 25.6 25.6v409.6c0 14.139 11.461 25.6 25.6 25.6s25.6-11.461 25.6-25.6v-409.6c0-42.347-34.453-76.8-76.8-76.8z" />
<glyph unicode="&#xe605;" glyph-name="home6" d="M742.4-51.2h-153.6c-14.139 0-25.6 11.461-25.6 25.6v179.2h-102.4v-179.2c0-14.139-11.462-25.6-25.6-25.6h-153.6c-42.347 0-76.8 34.451-76.8 76.8v313.506l-57.816-63.901c-9.451-10.443-25.56-11.293-36.054-1.902l-102.4 91.621c-5.078 4.544-8.134 10.923-8.494 17.728s2.010 13.472 6.581 18.525l452.050 499.632c14.053 15.533 32.995 24.086 53.334 24.086 20.341 0 39.282-8.554 53.333-24.086l452.050-499.634c4.571-5.053 6.941-11.72 6.581-18.523-0.36-6.805-3.416-13.186-8.494-17.73l-102.4-91.622c-10.499-9.39-26.605-8.541-36.053 1.902l-57.814 63.901-0.002-313.502c0-42.349-34.451-76.8-76.8-76.8zM614.4 0h128c14.115 0 25.6 11.485 25.6 25.6l0.003 379.957c0 10.587 6.517 20.083 16.397 23.89 9.882 3.805 21.083 1.138 28.187-6.714l85.315-94.299 64.242 57.48-434.778 480.546c-4.222 4.667-9.68 7.235-15.366 7.235-5.688 0-11.146-2.57-15.368-7.237l-434.778-480.544 64.243-57.482 85.32 94.301c7.102 7.853 18.306 10.518 28.187 6.714 9.88-3.806 16.397-13.301 16.397-23.89v-379.957c0-14.115 11.485-25.6 25.6-25.6h128v179.2c0 14.139 11.462 25.6 25.6 25.6h153.6c14.139 0 25.6-11.461 25.6-25.6v-179.2z" />
<glyph unicode="&#xe606;" glyph-name="bathtub" d="M844.8-51.2h-51.2c-14.139 0-25.6 11.461-25.6 25.6s11.461 25.6 25.6 25.6h51.2c14.139 0 25.6-11.461 25.6-25.6s-11.461-25.6-25.6-25.6zM230.4-51.2h-51.2c-14.138 0-25.6 11.461-25.6 25.6s11.462 25.6 25.6 25.6h51.2c14.138 0 25.6-11.461 25.6-25.6s-11.462-25.6-25.6-25.6zM1024 332.8c0 42.349-34.451 76.8-76.8 76.8h-793.6v486.4c0 14.115 11.485 25.6 25.6 25.6h76.8c7.288 0 20.446-5.451 25.6-10.603l6.43-6.43c-47.582-65.048-42.016-157.106 16.707-215.832 4.8-4.802 11.312-7.499 18.102-7.499s13.301 2.698 18.102 7.499l199.12 199.122c9.998 9.997 9.998 26.206 0 36.203-31.429 31.43-73.216 48.739-117.662 48.739-35.794 0-69.856-11.232-98.178-32.016l-6.419 6.418c-14.834 14.834-40.826 25.6-61.803 25.6h-76.8c-42.347 0-76.8-34.453-76.8-76.8v-486.4h-25.6c-42.347 0-76.8-34.451-76.8-76.8 0-33.373 21.403-61.829 51.2-72.397v-132.403c0-70.579 57.421-128 128-128h665.6c70.579 0 128 57.421 128 128v132.403c29.797 10.566 51.2 39.024 51.2 72.397zM483.749 903.952l-158.883-158.883c-27.978 44.488-22.621 104.093 16.075 142.789 21.76 21.758 50.69 33.741 81.459 33.741 22.050 0 43.152-6.154 61.349-17.646zM844.8 51.2h-665.6c-42.347 0-76.8 34.451-76.8 76.8v128h819.2v-128c0-42.349-34.451-76.8-76.8-76.8zM947.2 307.2h-870.4c-14.115 0-25.6 11.485-25.6 25.6s11.485 25.6 25.6 25.6h870.4c14.115 0 25.6-11.485 25.6-25.6s-11.485-25.6-25.6-25.6zM512 640c0-14.138-11.462-25.6-25.6-25.6s-25.6 11.462-25.6 25.6c0 14.138 11.462 25.6 25.6 25.6s25.6-11.462 25.6-25.6zM512 742.4c0-14.138-11.462-25.6-25.6-25.6s-25.6 11.462-25.6 25.6c0 14.138 11.462 25.6 25.6 25.6s25.6-11.462 25.6-25.6zM614.4 742.4c0-14.138-11.462-25.6-25.6-25.6s-25.6 11.462-25.6 25.6c0 14.138 11.462 25.6 25.6 25.6s25.6-11.462 25.6-25.6zM614.4 640c0-14.138-11.462-25.6-25.6-25.6s-25.6 11.462-25.6 25.6c0 14.138 11.462 25.6 25.6 25.6s25.6-11.462 25.6-25.6zM716.8 742.4c0-14.138-11.462-25.6-25.6-25.6s-25.6 11.462-25.6 25.6c0 14.138 11.462 25.6 25.6 25.6s25.6-11.462 25.6-25.6zM512 537.6c0-14.138-11.462-25.6-25.6-25.6s-25.6 11.462-25.6 25.6c0 14.138 11.462 25.6 25.6 25.6s25.6-11.462 25.6-25.6zM716.8 640c0-14.138-11.462-25.6-25.6-25.6s-25.6 11.462-25.6 25.6c0 14.138 11.462 25.6 25.6 25.6s25.6-11.462 25.6-25.6zM614.4 537.6c0-14.138-11.462-25.6-25.6-25.6s-25.6 11.462-25.6 25.6c0 14.138 11.462 25.6 25.6 25.6s25.6-11.462 25.6-25.6z" />
<glyph unicode="&#xe607;" glyph-name="toothbrush" d="M76.8 256c-14.138 0-25.6 11.461-25.6 25.6v153.6c0 14.139 11.462 25.6 25.6 25.6s25.6-11.461 25.6-25.6v-153.6c0-14.139-11.462-25.6-25.6-25.6zM179.2 256c-14.138 0-25.6 11.461-25.6 25.6v153.6c0 14.139 11.462 25.6 25.6 25.6s25.6-11.461 25.6-25.6v-153.6c0-14.139-11.462-25.6-25.6-25.6zM281.6 256c-14.138 0-25.6 11.461-25.6 25.6v153.6c0 14.139 11.462 25.6 25.6 25.6s25.6-11.461 25.6-25.6v-153.6c0-14.139-11.462-25.6-25.6-25.6zM384 256c-14.138 0-25.6 11.461-25.6 25.6v153.6c0 14.139 11.462 25.6 25.6 25.6s25.6-11.461 25.6-25.6v-153.6c0-14.139-11.462-25.6-25.6-25.6zM998.4 51.2h-921.6c-42.347 0-76.8 34.451-76.8 76.8s34.453 76.8 76.8 76.8h921.6c14.139 0 25.6-11.461 25.6-25.6s-11.461-25.6-25.6-25.6h-921.6c-14.115 0-25.6-11.485-25.6-25.6s11.485-25.6 25.6-25.6h921.6c14.139 0 25.6-11.461 25.6-25.6s-11.461-25.6-25.6-25.6zM486.4 256c-14.138 0-25.6 11.461-25.6 25.6v153.6c0 14.139 11.462 25.6 25.6 25.6s25.6-11.461 25.6-25.6v-153.6c0-14.139-11.462-25.6-25.6-25.6zM460.8 512h-307.2c-84.696 0-153.6 68.904-153.6 153.6s68.904 153.6 153.6 153.6h25.6c14.138 0 25.6-11.462 25.6-25.6s-11.462-25.6-25.6-25.6c-14.115 0-25.6-11.485-25.6-25.6s11.485-25.6 25.6-25.6h281.6c56.464 0 102.4-45.936 102.4-102.4s-45.936-102.4-102.4-102.4zM103.405 754.834c-31.138-17.584-52.205-50.994-52.205-89.234 0-56.464 45.936-102.4 102.4-102.4h307.2c28.232 0 51.2 22.968 51.2 51.2s-22.968 51.2-51.2 51.2h-281.6c-42.347 0-76.8 34.453-76.8 76.8 0 4.232 0.344 8.386 1.005 12.434z" />
<glyph unicode="&#xe608;" glyph-name="bed" d="M896 51.2h-51.2c-14.139 0-25.6 11.461-25.6 25.6s11.461 25.6 25.6 25.6h51.2c14.139 0 25.6-11.461 25.6-25.6s-11.461-25.6-25.6-25.6zM128 51.2h-51.2c-14.138 0-25.6 11.461-25.6 25.6s11.462 25.6 25.6 25.6h51.2c14.138 0 25.6-11.461 25.6-25.6s-11.462-25.6-25.6-25.6zM955.296 389.467l-121.219 363.656c-10.174 30.526-39.302 55.587-71.088 63.474-1.101 4.883-2.368 9.507-3.802 13.805-11.6 34.802-31.536 39.998-42.387 39.998h-204.8c-6.515 0-16.304-1.883-25.6-10.914-9.294 9.030-19.085 10.914-25.6 10.914h-204.8c-10.851 0-30.787-5.197-42.389-39.998-1.434-4.299-2.701-8.923-3.8-13.805-31.786-7.886-60.912-32.947-71.088-63.474l-121.219-363.656c-9.814-29.446-17.504-76.829-17.504-107.867v-102.4c0-42.349 34.453-76.8 76.8-76.8h819.2c42.349 0 76.8 34.451 76.8 76.8v102.4c0 31.038-7.69 78.421-17.504 107.867zM520.040 819.2h188.718c3.563-8.045 8.040-26.301 8.040-51.2s-4.478-43.155-8.040-51.2h-188.718c-3.563 8.045-8.040 26.301-8.040 51.2s4.478 43.155 8.040 51.2zM264.040 819.2h188.718c3.563-8.045 8.040-26.301 8.040-51.2s-4.478-43.155-8.040-51.2h-188.718c-3.563 8.045-8.040 26.301-8.040 51.2s4.478 43.155 8.040 51.2zM187.296 736.933c2.766 8.301 9.483 16.21 17.669 21.976 0.706-19.843 3.712-38.506 8.646-53.309 11.602-34.803 31.538-40 42.389-40h204.8c6.515 0 16.306 1.883 25.6 10.914 9.296-9.030 19.085-10.914 25.6-10.914h204.8c10.851 0 30.787 5.197 42.387 39.998 4.934 14.803 7.941 33.467 8.648 53.309 8.184-5.766 14.901-13.675 17.669-21.976l40.845-122.531h-679.898l40.845 122.533zM129.386 563.2h714.030l63.307-189.923c1.618-4.85 3.181-10.422 4.651-16.426-4.968 1.014-10.11 1.549-15.374 1.549h-819.2c-5.264 0-10.406-0.534-15.376-1.549 1.47 6.003 3.035 11.574 4.653 16.426l63.309 189.923zM921.6 179.2c0-14.115-11.485-25.6-25.6-25.6h-819.2c-14.115 0-25.6 11.485-25.6 25.6v102.4c0 14.115 11.485 25.6 25.6 25.6h819.2c14.115 0 25.6-11.485 25.6-25.6v-102.4z" />
<glyph unicode="&#xe609;" glyph-name="couch" d="M230.4 0h-51.2c-14.138 0-25.6 11.461-25.6 25.6s11.462 25.6 25.6 25.6h51.2c14.138 0 25.6-11.461 25.6-25.6s-11.462-25.6-25.6-25.6zM844.8 0h-51.2c-14.139 0-25.6 11.461-25.6 25.6s11.461 25.6 25.6 25.6h51.2c14.139 0 25.6-11.461 25.6-25.6s-11.461-25.6-25.6-25.6zM921.234 611.89c-3.931 128.624-41.493 210.912-117.36 257.877-69.722 43.163-163.373 51.834-291.874 51.834s-222.15-8.67-291.875-51.834c-75.867-46.965-113.429-129.253-117.36-257.877-58.534-11.752-102.765-63.547-102.765-125.49 0-61.813 44.048-113.534 102.4-125.429v-232.971c0-42.349 34.453-76.8 76.8-76.8h665.6c42.349 0 76.8 34.451 76.8 76.8v232.971c58.352 11.894 102.4 63.616 102.4 125.429 0 61.942-44.232 113.738-102.766 125.49zM247.075 826.234c59.411 36.778 145.416 44.166 264.925 44.166s205.514-7.389 264.925-44.166c59.691-36.952 89.528-105.419 93.104-214.486-58.17-12.037-102.029-63.664-102.029-125.347v-76.8h-512v76.8c0 61.683-43.859 113.31-102.030 125.347 3.578 109.067 33.416 177.534 93.106 214.486zM256 358.4h512v-76.8c0-14.115-11.485-25.6-25.6-25.6h-460.8c-14.115 0-25.6 11.485-25.6 25.6v76.8zM896 409.6c-14.139 0-25.6-11.461-25.6-25.6v-256c0-14.115-11.485-25.6-25.6-25.6h-665.6c-14.115 0-25.6 11.485-25.6 25.6v256c0 14.139-11.462 25.6-25.6 25.6-42.347 0-76.8 34.451-76.8 76.8 0 42.347 34.453 76.8 76.8 76.8s76.8-34.453 76.8-76.8v-204.8c0-42.349 34.453-76.8 76.8-76.8h460.8c42.349 0 76.8 34.451 76.8 76.8v204.8c0 42.347 34.451 76.8 76.8 76.8s76.8-34.453 76.8-76.8c0-42.349-34.451-76.8-76.8-76.8zM793.6 665.6h-25.6c-56.464 0-102.4 45.936-102.4 102.4v25.6c0 14.138-11.461 25.6-25.6 25.6s-25.6-11.462-25.6-25.6v-25.6c0-56.464-45.936-102.4-102.4-102.4s-102.4 45.936-102.4 102.4v25.6c0 14.138-11.462 25.6-25.6 25.6s-25.6-11.462-25.6-25.6v-25.6c0-56.464-45.936-102.4-102.4-102.4h-25.6c-14.138 0-25.6-11.462-25.6-25.6s11.462-25.6 25.6-25.6h25.6c56.464 0 102.4-45.936 102.4-102.4v-25.6c0-14.139 11.462-25.6 25.6-25.6s25.6 11.461 25.6 25.6v25.6c0 56.464 45.936 102.4 102.4 102.4s102.4-45.936 102.4-102.4v-25.6c0-14.139 11.461-25.6 25.6-25.6s25.6 11.461 25.6 25.6v25.6c0 56.464 45.936 102.4 102.4 102.4h25.6c14.139 0 25.6 11.462 25.6 25.6s-11.461 25.6-25.6 25.6zM384 596.805c-11.374 17.11-26.083 31.819-43.195 43.195 17.11 11.374 31.819 26.083 43.195 43.195 11.374-17.11 26.083-31.819 43.195-43.195-17.112-11.374-31.821-26.083-43.195-43.195zM640 596.805c-11.374 17.11-26.083 31.819-43.195 43.195 17.112 11.374 31.821 26.083 43.195 43.195 11.374-17.11 26.083-31.819 43.195-43.195-17.112-11.374-31.821-26.083-43.195-43.195z" />
<glyph unicode="&#xe60a;" glyph-name="chair" d="M819.2 281.6v25.6c0 21.896-16.45 58.027-32.701 82.402l-45.6 68.397c-12.373 18.562-21.066 54.291-18.602 76.461l34.237 308.141c3.822 34.406-6.286 67-28.462 91.778-22.174 24.778-53.453 38.422-88.072 38.422h-307.2c-34.618 0-65.898-13.645-88.074-38.422s-32.285-57.371-28.462-91.778l34.237-308.139c2.464-22.171-6.23-57.901-18.603-76.462l-45.598-68.397c-16.25-24.374-32.699-60.507-32.699-82.402v-25.6c0-28.186 15.274-52.859 37.97-66.221-16.992-36.754-37.97-108.872-37.97-240.979 0-14.139 11.462-25.6 25.6-25.6s25.6 11.461 25.6 25.6c0 146.891 27.139 209.968 38.898 230.4h63.502v-128c0-14.139 11.462-25.6 25.6-25.6s25.6 11.461 25.6 25.6v128h256v-128c0-14.139 11.461-25.6 25.6-25.6s25.6 11.461 25.6 25.6v128h63.506c11.76-20.426 38.907-83.501 38.894-230.397-0.002-14.139 11.459-25.602 25.597-25.603 0.002 0 0.002 0 0.003 0 14.136 0 25.598 11.461 25.6 25.597 0.013 132.109-20.968 204.23-37.966 240.986 22.694 13.362 37.966 38.034 37.966 66.218zM742.4 256h-512c-14.115 0-25.6 11.485-25.6 25.6s11.485 25.6 25.6 25.6h512c14.115 0 25.6-11.485 25.6-25.6s-11.485-25.6-25.6-25.6zM274.499 429.598c18.826 28.238 30.637 76.784 26.89 110.515l-34.237 308.141c-2.194 19.738 3.392 38.197 15.725 51.978 12.334 13.779 30.064 21.368 49.923 21.368h307.2c19.859 0 37.589-7.589 49.922-21.368 12.334-13.781 17.92-32.24 15.726-51.978l-34.237-308.139c-3.749-33.731 8.061-82.275 26.89-110.517l45.6-68.397c0.638-0.96 1.264-1.923 1.88-2.888-1.122 0.048-2.246 0.086-3.379 0.086h-512.002c-1.133 0-2.258-0.037-3.378-0.086 0.616 0.965 1.24 1.928 1.88 2.888l45.597 68.397zM614.4 460.8h-256c-14.138 0-25.6 11.462-25.6 25.6s11.462 25.6 25.6 25.6h256c14.139 0 25.6-11.462 25.6-25.6s-11.461-25.6-25.6-25.6zM640 716.8h-25.6c-56.464 0-102.4 45.936-102.4 102.4v25.6c0 14.138-11.462 25.6-25.6 25.6s-25.6-11.462-25.6-25.6v-25.6c0-56.464-45.936-102.4-102.4-102.4h-25.6c-14.138 0-25.6-11.462-25.6-25.6s11.462-25.6 25.6-25.6h25.6c56.464 0 102.4-45.936 102.4-102.4v-25.6c0-14.138 11.462-25.6 25.6-25.6s25.6 11.462 25.6 25.6v25.6c0 56.464 45.936 102.4 102.4 102.4h25.6c14.139 0 25.6 11.462 25.6 25.6s-11.461 25.6-25.6 25.6zM486.4 648.005c-11.374 17.11-26.083 31.819-43.195 43.195 17.11 11.374 31.819 26.083 43.195 43.195 11.374-17.11 26.083-31.819 43.195-43.195-17.112-11.374-31.821-26.083-43.195-43.195z" />
<glyph unicode="&#xe60b;" glyph-name="city" d="M460.8 460.8h51.2v-51.2h-51.2v51.2zM563.2 460.8h51.2v-51.2h-51.2v51.2zM665.6 460.8h51.2v-51.2h-51.2v51.2zM768 460.8h51.2v-51.2h-51.2v51.2zM460.8 307.2h51.2v-51.2h-51.2v51.2zM563.2 307.2h51.2v-51.2h-51.2v51.2zM665.6 307.2h51.2v-51.2h-51.2v51.2zM768 307.2h51.2v-51.2h-51.2v51.2zM460.8 153.6h51.2v-51.2h-51.2v51.2zM563.2 153.6h51.2v-51.2h-51.2v51.2zM665.6 153.6h51.2v-51.2h-51.2v51.2zM768 153.6h51.2v-51.2h-51.2v51.2zM896 614.4h-25.6v128c0 6.79-2.698 13.301-7.499 18.101l-94.901 94.902v91.797c0 14.138-11.461 25.6-25.6 25.6s-25.6-11.462-25.6-25.6v-91.797l-94.901-94.901c-4.802-4.8-7.499-11.312-7.499-18.101v-25.6h-102.4v127.998c0 14.138-11.462 25.6-25.6 25.6h-409.6c-14.138 0-25.6-11.462-25.6-25.6v-870.4c0-14.139 11.462-25.6 25.6-25.6h819.2c14.139 0 25.6 11.461 25.6 25.6v614.4c0 14.138-11.461 25.6-25.6 25.6zM665.6 731.797l76.8 76.8 76.8-76.8v-117.397h-51.2v76.8c0 14.138-11.461 25.6-25.6 25.6h-76.8v14.997zM716.8 665.6v-51.2h-204.8v51.2h204.8zM358.4 588.8v-588.8h-256v819.2h358.4v-204.8h-76.8c-14.138 0-25.6-11.462-25.6-25.6zM870.4 0h-460.8v563.2h460.8v-563.2zM358.4 768h51.2v-102.4h-51.2v102.4zM256 768h51.2v-102.4h-51.2v102.4zM153.6 768h51.2v-102.4h-51.2v102.4zM153.6 614.4h51.2v-102.4h-51.2v102.4zM256 614.4h51.2v-102.4h-51.2v102.4zM153.6 460.8h51.2v-102.4h-51.2v102.4zM256 460.8h51.2v-102.4h-51.2v102.4zM153.6 307.2h51.2v-102.4h-51.2v102.4zM256 307.2h51.2v-102.4h-51.2v102.4zM153.6 153.6h51.2v-102.4h-51.2v102.4zM256 153.6h51.2v-102.4h-51.2v102.4z" />
<glyph unicode="&#xe60c;" glyph-name="apartment" d="M716.8 665.6h51.2v-51.2h-51.2v51.2zM716.8 563.2h51.2v-51.2h-51.2v51.2zM716.8 460.8h51.2v-51.2h-51.2v51.2zM716.8 358.4h51.2v-51.2h-51.2v51.2zM716.8 153.6h51.2v-51.2h-51.2v51.2zM716.8 256h51.2v-51.2h-51.2v51.2zM307.2 665.6h51.2v-51.2h-51.2v51.2zM307.2 563.2h51.2v-51.2h-51.2v51.2zM307.2 460.8h51.2v-51.2h-51.2v51.2zM307.2 358.4h51.2v-51.2h-51.2v51.2zM307.2 153.6h51.2v-51.2h-51.2v51.2zM307.2 256h51.2v-51.2h-51.2v51.2zM204.8 665.6h51.2v-51.2h-51.2v51.2zM204.8 563.2h51.2v-51.2h-51.2v51.2zM204.8 460.8h51.2v-51.2h-51.2v51.2zM204.8 358.4h51.2v-51.2h-51.2v51.2zM204.8 153.6h51.2v-51.2h-51.2v51.2zM204.8 256h51.2v-51.2h-51.2v51.2zM409.6 665.6h51.2v-51.2h-51.2v51.2zM409.6 563.2h51.2v-51.2h-51.2v51.2zM409.6 460.8h51.2v-51.2h-51.2v51.2zM409.6 358.4h51.2v-51.2h-51.2v51.2zM409.6 153.6h51.2v-51.2h-51.2v51.2zM409.6 256h51.2v-51.2h-51.2v51.2zM947.2 0h-25.6v691.2c0 39.058-29.024 79.326-66.077 91.677l-241.123 80.374v83.949c0 8.093-3.827 15.709-10.318 20.539-6.493 4.829-14.888 6.306-22.637 3.981l-462.96-138.886c-37.73-11.32-67.285-51.043-67.285-90.434v-742.4h-25.6c-14.138 0-25.6-11.461-25.6-25.6s11.462-25.6 25.6-25.6h921.6c14.139 0 25.6 11.461 25.6 25.6s-11.461 25.6-25.6 25.6zM839.333 734.304c16.259-5.419 31.067-25.965 31.067-43.104v-691.2h-256v809.282l224.933-74.978zM102.4 742.4c0 16.827 14.678 36.557 30.797 41.392l430.003 129.002v-912.794h-460.8v742.4z" />
<glyph unicode="&#xe60d;" glyph-name="pencil" d="M978.101 926.902c-28.77 28.768-67.018 44.611-107.701 44.611-40.685 0-78.933-15.843-107.701-44.611l-652.8-652.8c-2.645-2.645-4.678-5.837-5.957-9.354l-102.4-281.6c-3.4-9.347-1.077-19.818 5.957-26.85 4.885-4.888 11.43-7.499 18.104-7.499 2.933 0 5.891 0.502 8.744 1.541l281.6 102.4c3.515 1.28 6.709 3.312 9.354 5.958l652.8 652.8c28.768 28.768 44.613 67.018 44.613 107.702s-15.843 78.933-44.613 107.701zM293.114 98.917l-224.709-81.71 81.712 224.707 566.683 566.683 142.997-142.997-566.683-566.683zM941.899 747.702l-45.899-45.899-142.997 142.997 45.899 45.899c19.098 19.098 44.49 29.614 71.498 29.614s52.4-10.518 71.499-29.616c19.098-19.098 29.616-44.49 29.616-71.498s-10.52-52.4-29.616-71.498z" />
<glyph unicode="&#xe60e;" glyph-name="pencil2" d="M25.603-51.2c-6.675 0-13.219 2.611-18.106 7.499-7.034 7.034-9.355 17.502-5.957 26.85l102.4 281.6c1.278 3.515 3.312 6.707 5.957 9.354l691.2 691.2c9.997 9.997 26.206 9.997 36.203 0l179.2-179.2c9.998-9.998 9.998-26.206 0-36.205l-691.2-691.2c-2.645-2.645-5.838-4.678-9.354-5.958l-281.6-102.4c-2.851-1.037-5.811-1.539-8.744-1.539zM150.118 241.914l-81.712-224.707 224.709 81.71 669.080 669.083-142.995 142.997-669.082-669.083z" />
<glyph unicode="&#xe60f;" glyph-name="pen" d="M1002.101 950.902c-14.312 14.314-33.55 21.57-57.178 21.57-38.552 0-90.39-20.173-154.691-60.096-20.602 21.781-59.752 55.149-109.102 59.157-39.395 3.197-76.557-12.355-110.432-46.23-71.957-71.957-107.366-159.792-130.798-217.914-7.962-19.75-17.87-44.333-22.802-49.395-1.678-1.678-6.768-6.766-15.546 0.642-10.034 9.461-25.837 9.282-35.654-0.533-9.998-9.998-9.998-26.206 0-36.203 4.194-4.195 14.976-12.326 28.786-16.2 5.552-1.558 11.064-2.328 16.469-2.328 6.491 0 12.826 1.125 18.893 3.314-7.027-7.202-14.042-14.453-21.035-21.757-180.053-188.078-381.962-446.123-408.661-606.318-1.36-8.157 1.304-16.466 7.149-22.31 4.84-4.842 11.37-7.499 18.102-7.499 1.398 0 2.806 0.114 4.21 0.349 66.966 11.162 155.259 53.531 262.421 125.934 94.797 64.046 199.966 148.87 304.139 245.298 101.602 94.045 194.278 191.611 268.010 282.152 55.093 67.65 125.874 164.242 150.224 240.221 15.402 48.064 11.195 84.451-12.502 108.149zM606.901 889.099c23.026 23.026 45.891 33.309 69.89 31.418 28.702-2.251 53.931-21.411 69.893-36.875-12.624-8.782-25.642-18.197-39.067-28.269-72.926-54.71-155.656-127.411-238.080-208.931 5.494 11.168 11.082 25.010 17.853 41.803 21.877 54.267 54.936 136.277 119.512 200.854zM155.434 192.363l88.171-88.171c-69.91-45.646-132.29-78.139-182.782-94.581 16.483 50.515 49.075 112.971 94.611 182.752zM561.589 357.954c-96.040-88.899-189.934-165.266-274.792-224.547l-102.163 102.165c67.64 96.896 157.245 205.195 261.362 313.95 120.925 126.312 240.387 230.635 335.994 296.29l114.899-114.902c-73.266-106.797-193.818-241.995-335.299-372.955zM965.843 858.378c-7.579-23.651-21.382-51.859-40.506-83.512l-99.403 99.403c50.074 30.282 91.147 47.003 118.989 47.003 14.4 0 19.349-4.949 20.974-6.574 11.858-11.856 5.056-40.376-0.054-56.32z" />
<glyph unicode="&#xe610;" glyph-name="pencil3" d="M998.4 665.6c0 141.158-114.84 256-256 256-38.574 0-75.664-8.374-110.234-24.89-2.701-1.29-5.048-3.010-7.050-5.013l-0.016 0.016-540.803-540.813c-3.917-3.917-6.458-8.998-7.24-14.482l-51.2-358.4c-1.139-7.976 1.542-16.026 7.242-21.722 4.834-4.834 11.362-7.499 18.099-7.499 1.203 0 2.413 0.085 3.622 0.258l358.4 51.2c5.483 0.782 10.565 3.323 14.482 7.24l540.413 540.4c0.014 0.013 0.027 0.027 0.038 0.038l0.357 0.357-0.005 0.005c2.002 2.002 3.71 4.362 5.002 7.061 16.518 34.576 24.893 71.666 24.893 110.243zM947.2 665.6c0-29.456-6.104-57.8-18.122-84.328l-58.89-58.89c-5.36 147.034-123.971 265.646-271.006 271.006l58.891 58.891c26.528 12.016 54.874 18.12 84.326 18.12 112.926 0 204.8-91.872 204.8-204.8zM102.659 153.594l21.68 151.766c9.675 1.222 19.464 1.84 29.261 1.84 127.043 0 230.4-103.357 230.4-230.4 0-9.797-0.624-19.584-1.846-29.261l-151.76-21.68c-0.141 70.374-57.36 127.594-127.734 127.734zM543.8 738.003c14.741 2.915 29.842 4.397 45 4.397 54.318 0 104.298-18.906 143.73-50.467l-398.83-398.83c-46.368 38.674-105.312 62.736-169.709 65.086l379.81 379.814zM369.904 256.899l398.829 398.83c31.562-39.432 50.467-89.411 50.467-143.73 0-15.155-1.483-30.258-4.397-45.002l-379.814-379.806c-2.349 64.395-26.413 123.339-65.085 169.707zM95.298 102.064c2.354 0.214 4.722 0.336 7.102 0.336 42.347 0 76.8-34.451 76.8-76.8 0-2.381-0.122-4.749-0.336-7.101l-97.494-13.928 13.928 97.493z" />
<glyph unicode="&#xe611;" glyph-name="eraser" d="M1009.411 618.853c-1.317 7.912-3.949 15.614-7.917 22.846-5.862 10.678-14.136 19.464-24.146 25.901-0.083 0.056-0.17 0.107-0.253 0.163-0.536 0.342-1.074 0.685-1.621 1.014-4.899 3.040-10.494 5.547-16.731 7.421-1.253 0.381-2.522 0.734-3.806 1.056l-310.258 77.565c-8.272 2.067-17.4 3.117-27.13 3.117-30.661 0-63.979-10.504-84.883-26.76l-379.97-295.534c-26.094-20.296-54.722-60.76-65.174-92.118l-70.019-210.056c-6.587-19.763-4.811-40.49 5-58.366 9.813-17.875 26.347-30.501 46.557-35.555l310.259-77.566c8.27-2.067 17.4-3.115 27.13-3.115 24.293 0 50.227 6.61 70.357 17.434 4.678 2.33 9.506 5.424 14.525 9.328l379.97 295.531c26.094 20.298 54.722 60.76 65.174 92.118l70.019 210.056c4.694 14.082 5.659 25.811 2.917 35.522zM617.55 706.734c5.47 0 10.558-0.549 14.712-1.589l308.906-77.226-378.869-294.678c-12.096-9.408-34.074-15.978-53.448-15.976-5.47 0-10.558 0.549-14.712 1.587l-308.909 77.229 378.87 294.677c12.094 9.406 34.074 15.976 53.45 15.976zM67.389 99.741c-2.872 5.23-3.338 11.458-1.312 17.536l70.019 210.058c4.712 14.138 20.901 23.034 35.365 19.414 0 0 0 0 0.002 0l310.259-77.566c6.216-1.554 11.221-5.291 14.093-10.52 2.87-5.232 3.336-11.459 1.31-17.538l-70.021-210.058c-4.714-14.138-20.917-23.030-35.366-19.414l-52.73 13.182c-0.002 0-0.005 0.002-0.008 0.002l-257.52 64.382c-6.216 1.552-11.221 5.29-14.091 10.522zM839.867 321.573l-353.642-275.054 59.47 178.414c7.32 21.958 29.766 53.685 48.037 67.894l353.643 275.056-59.472-178.416c-7.318-21.957-29.766-53.683-48.037-67.894z" />
<glyph unicode="&#xe612;" glyph-name="pencil4" d="M179.203 102.4c-6.675 0-13.219 2.613-18.106 7.501-7.034 7.034-9.357 17.501-5.957 26.848l102.4 281.6c1.278 3.515 3.312 6.707 5.957 9.355l537.6 537.6c9.997 9.998 26.208 9.998 36.203 0l179.2-179.2c10-9.997 10-26.206 0-36.203l-537.6-537.6c-2.645-2.645-5.837-4.68-9.354-5.96l-281.6-102.4c-2.851-1.038-5.811-1.541-8.744-1.541zM303.718 395.512l-81.712-224.706 224.709 81.71 515.482 515.483-142.997 142.997-515.482-515.485zM896-51.2h-819.2c-42.347 0-76.8 34.451-76.8 76.8v819.2c0 42.347 34.453 76.8 76.8 76.8h512c14.139 0 25.6-11.462 25.6-25.6s-11.461-25.6-25.6-25.6h-512c-14.115 0-25.6-11.485-25.6-25.6v-819.2c0-14.115 11.485-25.6 25.6-25.6h819.2c14.115 0 25.6 11.485 25.6 25.6v512c0 14.138 11.461 25.6 25.6 25.6s25.6-11.462 25.6-25.6v-512c0-42.349-34.451-76.8-76.8-76.8z" />
<glyph unicode="&#xe613;" glyph-name="pencil5" d="M978.099 926.902c-28.768 28.768-67.016 44.611-107.699 44.611-40.685 0-78.933-15.843-107.699-44.611l-499.2-499.2c-2.645-2.645-4.678-5.837-5.957-9.357l-102.4-281.6c-3.4-9.347-1.077-19.818 5.957-26.848 4.885-4.89 11.43-7.501 18.104-7.501 2.933 0 5.891 0.501 8.744 1.541l281.6 102.4c3.515 1.28 6.709 3.312 9.354 5.96l499.2 499.2c28.766 28.768 44.614 67.018 44.614 107.702-0.003 40.686-15.846 78.934-44.618 107.702zM446.714 252.517l-224.709-81.71 81.712 224.706 413.083 413.085 142.997-142.997-413.083-413.083zM941.901 747.702l-45.901-45.899-142.997 142.997 45.901 45.899c19.096 19.098 44.488 29.614 71.496 29.614s52.4-10.518 71.501-29.616c19.096-19.098 29.614-44.49 29.614-71.498s-10.52-52.4-29.614-71.498zM896-51.2h-819.2c-42.347 0-76.8 34.451-76.8 76.8v819.2c0 42.347 34.453 76.8 76.8 76.8h512c14.139 0 25.6-11.462 25.6-25.6s-11.461-25.6-25.6-25.6h-512c-14.115 0-25.6-11.485-25.6-25.6v-819.2c0-14.115 11.485-25.6 25.6-25.6h819.2c14.115 0 25.6 11.485 25.6 25.6v512c0 14.138 11.461 25.6 25.6 25.6s25.6-11.462 25.6-25.6v-512c0-42.349-34.451-76.8-76.8-76.8z" />
<glyph unicode="&#xe614;" glyph-name="feather" d="M25.621-51.2c-0.453 0-0.906 0.011-1.363 0.035-13.918 0.73-24.694 12.459-24.245 26.389 6.037 187.152 56.115 355.309 148.842 499.802 76.144 118.651 180.746 221.237 310.902 304.909 124.197 79.84 247.318 126.366 328.738 151.339 93.522 28.686 172.811 41.526 209.906 41.526 14.139 0 25.6-11.462 25.6-25.6 0-61.803-59.074-120.877-84.299-146.102-40.987-40.989-116.48-67.2-189.488-92.549-22.901-7.952-46.054-15.99-67.638-24.341 72.21 6.286 143.658 7.010 172.386 7.010 4.483 0 6.92-0.021 6.92-0.021 9.502-0.083 18.179-5.422 22.534-13.867s3.674-18.608-1.77-26.398c-54.811-78.418-121.653-139.506-204.344-186.758-38.766-22.15-81.678-32.467-135.050-32.467-31.558 0-63.579 3.566-94.546 7.014-30.344 3.379-61.722 6.874-91.982 6.874-55.731 0-98.205-11.749-137.723-38.093-141.539-94.36-167.621-431.563-167.867-434.957-0.978-13.445-12.186-23.744-25.512-23.744zM966.262 919.2c-88.459-10.819-288.438-59.946-478.819-182.333-97.731-62.827-205.734-154.006-289.904-282.282 45.957 28.766 96.786 42.208 159.182 42.208 33.102 0 65.917-3.654 97.65-7.189 30.939-3.445 60.165-6.701 88.88-6.701 44.096 0 78.936 8.174 109.646 25.723 61.973 35.413 112.709 77.635 156.774 130.843-63.938-1.429-173.421-6.502-239.885-24.208-10.286-2.741-21.2 1.174-27.402 9.83-6.2 8.656-6.395 20.248-0.488 29.107 31.418 47.128 109.186 74.13 191.52 102.717 67.55 23.454 137.398 47.706 170.078 80.386 14.752 14.749 48.515 48.514 62.766 81.898z" />
<glyph unicode="&#xe615;" glyph-name="feather2" d="M25.621-51.197c-0.464 0-0.928 0.013-1.397 0.037-13.904 0.749-24.661 12.469-24.211 26.384 6.037 187.152 56.115 355.309 148.842 499.802 76.144 118.651 180.746 221.237 310.902 304.909 124.197 79.84 247.318 126.366 328.738 151.339 93.522 28.686 172.811 41.526 209.906 41.526 14.139 0 25.6-11.462 25.6-25.6s-11.461-25.6-25.6-25.6c-59.699 0-291.698-43.781-510.957-184.734-96.49-62.029-203.006-151.715-286.701-277.434 29.013 18.226 62.395 29.723 100.939 34.87 48.805 6.517 100.112 2.27 149.73-1.837 74.598-6.178 145.059-12.010 202.739 16.832 95.558 47.779 169.443 145.099 170.178 146.075 8.498 11.296 24.539 13.578 35.838 5.090 11.299-8.486 13.59-24.517 5.11-35.822-3.285-4.378-81.651-107.846-188.232-161.138-70.509-35.253-151.522-28.549-229.861-22.062-94.962 7.862-184.658 15.286-249.885-49.942-122.49-122.49-145.952-416.067-146.174-419.018-1.010-13.416-12.206-23.677-25.504-23.677zM588.813 665.594c-9.891 0-19.309 5.765-23.498 15.416-5.629 12.97 0.325 28.046 13.296 33.674 100.901 43.782 329.546 104.517 368.589 104.517 14.139 0 25.6-11.462 25.6-25.6s-11.461-25.6-25.6-25.6c-27.019 0-245.427-55.688-348.211-100.285-3.317-1.44-6.774-2.122-10.176-2.122z" />
<glyph unicode="&#xe616;" glyph-name="feather3" d="M230.43 204.798c-0.877 0-1.76 0.043-2.651 0.136-13.982 1.438-24.19 13.883-22.866 27.878 12.214 129.035 54.398 245.043 125.379 344.802 58.243 81.858 135.643 152.653 230.050 210.421 163.32 99.933 334.048 133.565 386.858 133.565 14.139 0 25.6-11.462 25.6-25.6 0-48.333-44.909-93.242-64.088-112.419-31.296-31.294-87.662-50.866-142.174-69.792-1.584-0.55-3.171-1.101-4.766-1.656 34.917 1.725 64.955 1.984 79.731 1.984 3.344 0 5.165-0.016 5.165-0.016 9.502-0.083 18.179-5.422 22.533-13.867s3.675-18.608-1.768-26.398c-40.965-58.606-90.93-104.269-152.749-139.6-29.626-16.928-62.306-24.813-102.853-24.813-23.632 0-47.414 2.65-70.413 5.21-22.176 2.47-45.106 5.024-67.034 5.024-39.653 0-69.797-8.307-97.739-26.936-0.883-0.589-1.802-1.122-2.75-1.597-37.104-18.554-69.234-69.17-92.912-146.379-18.786-61.25-25.075-116.622-25.136-117.173-1.456-13.080-12.533-22.773-25.416-22.773zM911.595 866.925c-66.794-10.248-197.187-44.645-324.528-122.563-70.47-43.12-149.366-105.859-212.848-194.24 29.499 14.075 61.995 20.736 100.163 20.736 24.77 0 49.136-2.714 72.701-5.338 22.605-2.518 43.957-4.896 64.746-4.896 31.27 0 55.88 5.741 77.448 18.066 40.4 23.090 74.216 50.166 103.848 83.426-47.512-1.478-116.565-5.635-160.013-17.208-10.285-2.741-21.198 1.173-27.402 9.832-6.2 8.658-6.394 20.248-0.488 29.107 24.41 36.61 82.752 56.866 144.52 78.312 49.054 17.032 99.779 34.643 122.766 57.629 8.101 8.098 27.242 27.24 39.086 47.138zM387.474 106.24c-0.29 0.318-29.074 32.84-29.074 72.96 0 18.435-9.894 35.91-27.862 49.205-11.366 8.411-27.398 6.013-35.806-5.354-8.41-11.366-6.013-27.397 5.354-35.806 5.848-4.326 7.115-7.494 7.115-8.045 0-0.886-2.754-6.763-15.84-13.306-15.627-7.813-37.845-12.294-60.96-12.294s-45.333 4.482-60.96 12.294c-13.086 6.544-15.84 12.421-15.84 13.306 0 0.434 0.822 2.76 4.842 6.234 10.696 9.245 11.872 25.411 2.627 36.107-9.246 10.699-25.411 11.872-36.109 2.627-18.646-16.115-22.56-33.349-22.56-44.968 0-40.182-28.861-72.72-29.074-72.96-27.821-30.35-27.821-79.731 0-110.082 4.443-4.846 46.602-47.358 157.074-47.358s152.63 42.512 157.074 47.36c27.821 30.349 27.821 79.731 0 110.080zM349.733 30.757c-0.283-0.309-32.11-30.757-119.333-30.757-84.8 0-117.387 28.981-119.592 31.045-9.722 10.936-9.635 29.803 0.261 40.598 1.128 1.23 18.736 20.752 30.938 50.848 1.477-0.818 2.984-1.618 4.538-2.394 22.826-11.411 52.606-17.698 83.856-17.698s61.030 6.286 83.856 17.699c1.554 0.776 3.061 1.576 4.538 2.394 12.202-30.098 29.81-49.619 30.938-50.848 9.984-10.891 9.984-29.998 0.002-40.888z" />
<glyph unicode="&#xe617;" glyph-name="pen2" d="M814.080 348.16c-133.638 178.182-211.768 433.933-224.056 491.733 15.328 14.37 24.376 34.67 24.376 56.107 0 42.347-34.451 76.8-76.8 76.8-15.266 0-35.298-1.49-51.2-11.826-15.902 10.336-35.933 11.826-51.2 11.826-42.347 0-76.8-34.453-76.8-76.8 0-21.437 9.050-41.741 24.379-56.11-12.288-57.798-90.421-313.546-224.059-491.73-7.645-10.19-6.63-24.453 2.378-33.461 37.253-37.253 128.971-142.838 143.99-218.182-20.869-8.778-42.019-27.357-63.168-55.557-20.352-27.134-33.853-53.981-34.418-55.11-3.966-7.936-3.544-17.36 1.122-24.907 4.664-7.547 12.904-12.141 21.776-12.141h512c8.872 0 17.112 4.594 21.776 12.141 4.664 7.549 5.090 16.971 1.12 24.907-0.565 1.13-14.066 27.976-34.418 55.11-21.149 28.198-42.298 46.774-63.165 55.555 15.037 75.251 106.741 180.899 143.986 218.184 9.011 9.006 10.024 23.269 2.381 33.461zM486.4 358.4c14.115 0 25.6-11.485 25.6-25.6s-11.485-25.6-25.6-25.6-25.6 11.485-25.6 25.6 11.485 25.6 25.6 25.6zM697.331 0h-421.862c18.768 27.090 41.574 51.2 57.331 51.2h307.2c15.758 0 38.566-24.114 57.331-51.2zM696.32 258.56c-45.142-60.187-71.803-112.565-79.547-156.16h-260.747c-7.742 43.595-34.405 95.971-79.546 156.16-24.547 32.73-48.883 60.165-63.974 76.427 74.946 105.171 130.011 228.986 163.626 316.445 17.467 45.451 33.438 92.486 44.966 132.44 16.798 58.211 15.011 66.963 13.942 72.192-1.536 7.528-6.138 13.997-12.622 17.747-7.906 4.573-12.818 13.075-12.818 22.189 0 14.115 11.485 25.6 25.6 25.6 19.445 0 23.709-3.906 23.736-3.946 1.864-2.698 1.864-14.106 1.864-21.654v-490.803c-29.797-10.568-51.2-39.024-51.2-72.397 0-42.349 34.453-76.8 76.8-76.8 42.349 0 76.8 34.451 76.8 76.8 0 33.373-21.403 61.83-51.2 72.397v490.803c0 7.549 0 18.957 1.864 21.654 0.027 0.040 4.291 3.946 23.736 3.946 14.115 0 25.6-11.485 25.6-25.6 0-9.112-4.91-17.614-12.818-22.19-6.485-3.754-11.085-10.222-12.621-17.749-1.067-5.229-2.853-13.981 13.944-72.19 11.528-39.955 27.499-86.99 44.966-132.44 33.613-87.459 88.677-211.272 163.622-316.445-15.091-16.262-39.427-43.696-63.974-76.426z" />
<glyph unicode="&#xe618;" glyph-name="pen-add" d="M660.48 348.16c-133.638 178.182-211.768 433.933-224.056 491.733 15.326 14.368 24.376 34.672 24.376 56.107 0 42.347-34.453 76.8-76.8 76.8-15.267 0-35.298-1.49-51.2-11.826-15.902 10.336-35.933 11.826-51.2 11.826-42.347 0-76.8-34.453-76.8-76.8 0-21.438 9.050-41.742 24.379-56.11-12.288-57.798-90.419-313.542-224.059-491.73-7.645-10.19-6.63-24.453 2.378-33.461 37.253-37.253 128.971-142.838 143.99-218.182-20.869-8.778-42.019-27.357-63.168-55.557-20.352-27.134-33.853-53.981-34.418-55.11-3.966-7.936-3.544-17.36 1.122-24.907 4.664-7.549 12.904-12.142 21.776-12.142h512c8.872 0 17.112 4.594 21.776 12.141 4.664 7.549 5.090 16.971 1.12 24.907-0.565 1.13-14.066 27.976-34.418 55.11-21.149 28.198-42.298 46.774-63.165 55.555 15.037 75.251 106.741 180.899 143.986 218.184 9.011 9.008 10.024 23.27 2.381 33.462zM332.8 358.4c14.115 0 25.6-11.485 25.6-25.6s-11.485-25.6-25.6-25.6-25.6 11.485-25.6 25.6 11.485 25.6 25.6 25.6zM543.731 0h-421.862c18.768 27.090 41.574 51.2 57.331 51.2h307.2c15.758 0 38.566-24.114 57.331-51.2zM542.72 258.56c-45.141-60.187-71.803-112.565-79.546-156.16h-260.749c-7.742 43.595-34.405 95.971-79.546 156.16-24.547 32.73-48.883 60.165-63.974 76.427 74.946 105.171 130.011 228.986 163.626 316.445 17.469 45.451 33.438 92.486 44.968 132.44 16.798 58.211 15.010 66.963 13.942 72.192-1.536 7.528-6.139 13.997-12.624 17.747-7.907 4.573-12.818 13.075-12.818 22.189 0 14.115 11.485 25.6 25.6 25.6 19.445 0 23.709-3.906 23.736-3.946 1.864-2.698 1.864-14.106 1.864-21.654v-490.803c-29.797-10.568-51.2-39.024-51.2-72.397 0-42.349 34.453-76.8 76.8-76.8s76.8 34.451 76.8 76.8c0 33.373-21.403 61.829-51.2 72.397v490.803c0 7.549 0 18.957 1.864 21.654 0.027 0.040 4.291 3.946 23.736 3.946 14.115 0 25.6-11.485 25.6-25.6 0-9.112-4.91-17.614-12.816-22.19-6.485-3.754-11.085-10.222-12.621-17.749-1.067-5.229-2.853-13.981 13.944-72.19 11.53-39.955 27.499-86.99 44.966-132.44 33.613-87.459 88.677-211.272 163.622-316.445-15.093-16.262-39.429-43.696-63.976-76.426zM947.2 768h-128v128c0 14.138-11.461 25.6-25.6 25.6s-25.6-11.462-25.6-25.6v-128h-128c-14.139 0-25.6-11.462-25.6-25.6s11.461-25.6 25.6-25.6h128v-128c0-14.138 11.461-25.6 25.6-25.6s25.6 11.462 25.6 25.6v128h128c14.139 0 25.6 11.462 25.6 25.6s-11.461 25.6-25.6 25.6z" />
<glyph unicode="&#xe619;" glyph-name="pen-remove" d="M660.48 348.16c-133.638 178.182-211.768 433.933-224.056 491.733 15.326 14.368 24.376 34.672 24.376 56.107 0 42.347-34.453 76.8-76.8 76.8-15.267 0-35.298-1.49-51.2-11.826-15.902 10.336-35.933 11.826-51.2 11.826-42.347 0-76.8-34.453-76.8-76.8 0-21.438 9.050-41.742 24.379-56.11-12.288-57.798-90.419-313.542-224.059-491.73-7.645-10.19-6.63-24.453 2.378-33.461 37.253-37.253 128.971-142.838 143.99-218.182-20.869-8.778-42.019-27.357-63.168-55.557-20.352-27.134-33.853-53.981-34.418-55.11-3.966-7.936-3.544-17.36 1.122-24.907 4.664-7.549 12.904-12.142 21.776-12.142h512c8.872 0 17.112 4.594 21.776 12.141 4.664 7.549 5.090 16.971 1.12 24.907-0.565 1.13-14.066 27.976-34.418 55.11-21.149 28.198-42.298 46.774-63.165 55.555 15.037 75.251 106.741 180.899 143.986 218.184 9.011 9.008 10.024 23.27 2.381 33.462zM332.8 358.4c14.115 0 25.6-11.485 25.6-25.6s-11.485-25.6-25.6-25.6-25.6 11.485-25.6 25.6 11.485 25.6 25.6 25.6zM543.731 0h-421.862c18.768 27.090 41.574 51.2 57.331 51.2h307.2c15.758 0 38.566-24.114 57.331-51.2zM542.72 258.56c-45.141-60.187-71.803-112.565-79.546-156.16h-260.749c-7.742 43.595-34.405 95.971-79.546 156.16-24.547 32.73-48.883 60.165-63.974 76.427 74.946 105.171 130.011 228.986 163.626 316.445 17.469 45.451 33.438 92.486 44.968 132.44 16.798 58.211 15.010 66.963 13.942 72.192-1.536 7.528-6.139 13.997-12.624 17.747-7.907 4.573-12.818 13.075-12.818 22.189 0 14.115 11.485 25.6 25.6 25.6 19.445 0 23.709-3.906 23.736-3.946 1.864-2.698 1.864-14.106 1.864-21.654v-490.803c-29.797-10.568-51.2-39.024-51.2-72.397 0-42.349 34.453-76.8 76.8-76.8s76.8 34.451 76.8 76.8c0 33.373-21.403 61.829-51.2 72.397v490.803c0 7.549 0 18.957 1.864 21.654 0.027 0.040 4.291 3.946 23.736 3.946 14.115 0 25.6-11.485 25.6-25.6 0-9.112-4.91-17.614-12.816-22.19-6.485-3.754-11.085-10.222-12.621-17.749-1.067-5.229-2.853-13.981 13.944-72.19 11.53-39.955 27.499-86.99 44.966-132.44 33.613-87.459 88.677-211.272 163.622-316.445-15.093-16.262-39.429-43.696-63.976-76.426zM947.2 716.8h-307.2c-14.139 0-25.6 11.462-25.6 25.6s11.461 25.6 25.6 25.6h307.2c14.139 0 25.6-11.462 25.6-25.6s-11.461-25.6-25.6-25.6z" />
<glyph unicode="&#xe61a;" glyph-name="vector" d="M947.2 460.269c-11.698 0-22.784-2.646-32.709-7.358l-146.491 146.493v91.797c0 14.138-11.461 25.6-25.6 25.6h-91.797l-146.109 146.109c4.806 10.027 7.506 21.25 7.506 33.091 0 42.347-34.453 76.8-76.8 76.8s-76.8-34.453-76.8-76.8 34.453-76.8 76.8-76.8c11.842 0 23.064 2.698 33.091 7.506l69.371-69.373c-59.445 14.544-124.038 13.59-193.202-2.994-81.605-19.566-154.435-57.512-206.909-90.6-2.954 1.19-6.173 1.861-9.552 1.861h-102.4c-14.138 0-25.6-11.462-25.6-25.6v-102.4c0-14.138 11.462-25.6 25.6-25.6h102.4c14.138 0 25.6 11.462 25.6 25.6v75.613c106.976 70.114 297.386 160.312 460.8 56.152v-80.565c0-14.138 11.461-25.6 25.6-25.6h80.554c107.123-168.61 2.962-370.198-56.16-460.8h-75.594c-14.139 0-25.6-11.461-25.6-25.6v-102.4c0-14.139 11.461-25.6 25.6-25.6h102.4c14.139 0 25.6 11.461 25.6 25.6v102.4c0 3.379-0.67 6.597-1.859 9.55 33.088 52.475 71.034 125.302 90.6 206.91 16.582 69.163 17.536 133.757 2.992 193.202l69.656-69.658c-4.821-10.016-7.523-21.234-7.523-33.072 0-42.2 34.333-76.533 76.534-76.533s76.534 34.333 76.534 76.534-34.333 76.534-76.534 76.534zM102.4 563.2h-51.2v51.2h51.2v-51.2zM665.6 0h-51.2v51.2h51.2v-51.2zM409.6 896c0 14.115 11.485 25.6 25.6 25.6s25.6-11.485 25.6-25.6-11.485-25.6-25.6-25.6-25.6 11.485-25.6 25.6zM665.6 665.6h51.2v-51.2h-51.2v51.2zM947.2 358.4c-13.968 0-25.334 11.366-25.334 25.334s11.366 25.334 25.334 25.334 25.334-11.366 25.334-25.334-11.366-25.334-25.334-25.334z" />
<glyph unicode="&#xe61b;" glyph-name="pen3" d="M990.901 658.101l-307.2 307.2c-8.429 8.432-21.56 9.925-31.67 3.606l-409.6-256c-7.485-4.678-12.032-12.798-12.032-21.626-0.003-0.504-0.658-51.741-28.995-160.781-26.147-100.619-81.888-272.434-198.939-519.541-4.632-9.778-2.616-21.411 5.034-29.061 4.91-4.912 11.461-7.499 18.109-7.499 3.709 0 7.45 0.806 10.952 2.464 247.109 117.051 418.923 172.792 519.544 198.941 109.042 28.338 160.277 28.992 160.698 28.995 8.827 0 17.032 4.547 21.709 12.032l256 409.6c6.318 10.109 4.822 23.24-3.608 31.669zM702.171 255.298c-49.29-3.731-223.314-27.166-558.454-173.382l343.746 343.746c16.59-10.179 36.088-16.061 56.938-16.061 60.213 0 109.2 48.987 109.2 109.2s-48.987 109.2-109.2 109.2c-60.213 0-109.2-48.987-109.2-109.2 0-20.85 5.882-40.347 16.061-56.936l-343.747-343.747c146.218 335.141 169.651 509.165 173.382 558.454l381.003 238.126 278.4-278.4-238.128-381zM486.4 518.8c0 31.981 26.019 58 58 58s58-26.019 58-58-26.019-58-58-58-58 26.019-58 58z" />
<glyph unicode="&#xe61c;" glyph-name="blog" d="M530.101 350.901l-128 128c-6.658 6.659-16.434 9.125-25.458 6.419l-256-76.8c-8.648-2.594-15.29-9.552-17.48-18.31l-102.4-409.6c-2.181-8.725 0.376-17.954 6.734-24.31 4.861-4.862 11.397-7.499 18.102-7.499 2.067 0 4.152 0.25 6.208 0.765l409.6 102.4c8.76 2.19 15.717 8.832 18.312 17.48l76.8 256c2.707 9.019 0.242 18.797-6.419 25.456zM414.864 98.102l-305.808-76.451 139.453 139.454c10.026-4.806 21.25-7.506 33.091-7.506 42.347 0 76.8 34.451 76.8 76.8s-34.453 76.8-76.8 76.8-76.8-34.451-76.8-76.8c0-11.842 2.698-23.064 7.506-33.091l-139.454-139.454 76.453 305.81 227.406 68.222 106.376-106.374-68.222-227.41zM256 230.4c0 14.115 11.485 25.6 25.6 25.6s25.6-11.485 25.6-25.6-11.485-25.6-25.6-25.6-25.6 11.485-25.6 25.6zM691.2 358.4c-14.139 0-25.6 11.461-25.6 25.6 0 127.043-103.357 230.4-230.4 230.4-14.138 0-25.6 11.462-25.6 25.6s11.462 25.6 25.6 25.6c155.275 0 281.6-126.325 281.6-281.6 0-14.139-11.461-25.6-25.6-25.6zM844.8 358.4c-14.139 0-25.6 11.461-25.6 25.6 0 211.738-172.261 384-384 384-14.138 0-25.6 11.462-25.6 25.6s11.462 25.6 25.6 25.6c116.245 0 225.534-45.269 307.733-127.467s127.467-191.486 127.467-307.733c0-14.139-11.461-25.6-25.6-25.6zM998.4 358.4c-14.139 0-25.6 11.461-25.6 25.6 0 296.434-241.166 537.6-537.6 537.6-14.138 0-25.6 11.462-25.6 25.6s11.462 25.6 25.6 25.6c79.477 0 156.589-15.571 229.195-46.282 70.117-29.658 133.083-72.107 187.15-126.174s96.517-117.032 126.173-187.149c30.71-72.606 46.282-149.718 46.282-229.195 0-14.139-11.461-25.6-25.6-25.6z" />
<glyph unicode="&#xe61d;" glyph-name="brush" d="M25.6-51.2c-12.272 0-22.818 8.707-25.138 20.76-2.32 12.050 4.237 24.051 15.63 28.61 42.032 16.813 61.862 73.43 82.858 133.37 14.174 40.467 28.832 82.312 51.974 114.899 28.371 39.947 66.342 60.203 112.861 60.203 15.395 0 32.091-2.224 49.624-6.606 31.077-7.768 57.846-27.318 75.378-55.046 17.141-27.109 24.323-60.373 20.226-93.666-12.054-97.906-119.106-202.523-383.413-202.523zM263.786 255.442c-62.666 0-85.822-53.205-116.514-140.829-13.834-39.493-27.938-79.765-49.76-111.595 75.813 6.654 138.595 24.221 183.982 51.766 44.635 27.088 71.875 63.594 76.701 102.794 5.432 44.12-18.627 83.142-57.203 92.786-13.477 3.37-25.995 5.078-37.206 5.078zM488.677 308.386c-0.003 0-0.003 0-0.006 0-43.437 0.002-81.733 18.571-105.067 50.95-25.787 35.778-30.995 85.042-14.288 135.16 14.157 42.469 45.957 81.413 100.080 122.557 46.304 35.2 105.37 69.314 167.902 105.432 111.163 64.203 237.157 136.974 343.002 242.819 9.997 9.997 26.206 9.997 36.203 0 4.998-5.002 7.498-11.552 7.498-18.104s-2.499-13.102-7.499-18.102c-105.845-105.845-178.613-231.838-242.818-343-36.117-62.533-70.232-121.6-105.432-167.904-41.144-54.122-80.088-85.923-122.557-100.080-19.363-6.454-38.549-9.728-57.018-9.728zM832.086 780.886c-57.419-38.189-115.014-71.454-169.181-102.739-118.554-68.472-220.941-127.608-245.019-199.842-11.606-34.821-9.032-66.438 7.253-89.034 13.797-19.142 36.36-29.685 63.534-29.686 0 0 0.003 0 0.005 0 12.957 0 26.691 2.389 40.827 7.101 72.234 24.078 131.368 126.466 199.842 245.019 31.286 54.166 64.55 111.762 102.739 169.181z" />
<glyph unicode="&#xe61e;" glyph-name="brush2" d="M179.2 102.4c-6.736 0-13.344 2.736-18.096 7.504-4.768 4.752-7.504 11.36-7.504 18.096s2.736 13.328 7.504 18.098c4.768 4.766 11.36 7.502 18.096 7.502s13.328-2.736 18.096-7.502c4.768-4.768 7.504-11.362 7.504-18.098s-2.736-13.344-7.504-18.096c-4.752-4.768-11.36-7.504-18.096-7.504zM954.699 489.506l-413.994 413.992c-14.466 14.467-33.752 22.434-54.306 22.434s-39.84-7.966-54.306-22.434l-260.394-260.392c-27.616-27.618-35.568-76.616-18.101-111.549l82.205-164.41c2.526-5.053 2.966-9.88 1.237-13.59-1.728-3.71-5.706-6.482-11.2-7.797-4.421-1.061-109.002-26.694-173.357-91.046-33.845-33.846-52.485-78.848-52.485-126.714s18.64-92.867 52.486-126.712c33.846-33.848 78.848-52.488 126.714-52.488 0.003 0-0.002 0 0 0 47.862 0 92.869 18.642 126.714 52.488 64.354 64.355 89.986 168.936 91.045 173.357 1.096 4.573 4.21 12.245 12.749 12.245 2.701 0 5.608-0.768 8.637-2.283l164.413-82.206c12.166-6.083 26.475-9.299 41.384-9.299 26.778 0 53.008 10.242 70.165 27.4l260.394 260.395c29.942 29.942 29.942 78.666 0 108.61zM658.101 156.704c-7.536-7.534-20.866-12.403-33.962-12.403-7.002 0-13.394 1.346-18.488 3.893l-164.408 82.206c-10.203 5.101-20.813 7.69-31.534 7.69-30.021 0-55.154-20.701-62.533-51.488-0.229-0.944-23.464-95.107-77.467-149.11-24.176-24.178-56.318-37.491-90.509-37.491s-66.334 13.314-90.51 37.491c-24.176 24.176-37.49 56.32-37.49 90.509s13.315 66.333 37.491 90.509c54.002 54 148.166 77.237 149.090 77.461 20.691 4.962 37.338 18.070 45.675 35.966 8.336 17.898 7.661 39.077-1.854 58.106l-82.205 164.411c-7.666 15.33-3.608 40.328 8.51 52.448l48.093 48.096 450.197-450.197-48.096-48.096zM918.496 417.099l-176.096-176.096-450.197 450.197 176.096 176.094c4.795 4.795 11.224 7.435 18.101 7.435s13.306-2.64 18.101-7.437l413.995-413.992c9.981-9.981 9.981-26.221 0-36.202z" />
<glyph unicode="&#xe61f;" glyph-name="spray" d="M560.64 559.664c-6.454 27.525-25.002 52.426-53.829 71.643-26.946 17.965-60.786 29.371-97.211 33.021v52.472h25.6c14.138 0 25.6 11.462 25.6 25.6v102.4c0 14.138-11.462 25.6-25.6 25.6h-102.4c-14.138 0-25.6-11.462-25.6-25.6v-102.4c0-14.138 11.462-25.6 25.6-25.6h25.6v-52.472c-36.426-3.648-70.266-15.056-97.211-33.021-28.827-19.218-47.374-44.12-53.829-71.643-31.125-9.81-53.76-38.941-53.76-73.264v-460.8c0-42.347 34.453-76.8 76.8-76.8h307.2c42.347 0 76.8 34.453 76.8 76.8v460.8c0 34.323-22.635 63.454-53.76 73.264zM358.4 819.2h51.2v-51.2h-51.2v51.2zM384 614.4c54.506 0 102.352-21.709 120.37-51.2h-240.739c18.018 29.491 65.864 51.2 120.37 51.2zM537.6 0h-307.2c-14.115 0-25.6 11.485-25.6 25.6v460.8c0 14.115 11.485 25.6 25.6 25.6h307.2c14.115 0 25.6-11.485 25.6-25.6v-76.8h-128c-14.138 0-25.6-11.461-25.6-25.6v-256c0-14.139 11.462-25.6 25.6-25.6h128v-76.8c0-14.115-11.485-25.6-25.6-25.6zM563.2 358.4v-204.8h-102.4v204.8h102.4zM537.6 768c-6.736 0-13.344 2.736-18.098 7.504-4.766 4.752-7.502 11.36-7.502 18.096s2.736 13.344 7.502 18.096c4.754 4.768 11.362 7.504 18.098 7.504s13.344-2.736 18.096-7.504c4.768-4.768 7.504-11.36 7.504-18.096s-2.736-13.328-7.504-18.096c-4.752-4.768-11.36-7.504-18.096-7.504zM640 819.2c-6.736 0-13.344 2.736-18.098 7.504-4.766 4.768-7.502 11.36-7.502 18.096s2.736 13.328 7.502 18.096c4.754 4.768 11.362 7.504 18.098 7.504s13.328-2.736 18.096-7.504c4.768-4.752 7.504-11.36 7.504-18.096s-2.736-13.344-7.504-18.096c-4.752-4.768-11.36-7.504-18.096-7.504zM742.4 870.4c-6.736 0-13.344 2.736-18.098 7.504-4.766 4.768-7.502 11.36-7.502 18.096s2.736 13.344 7.502 18.096c4.754 4.768 11.362 7.504 18.098 7.504s13.328-2.736 18.096-7.504c4.768-4.752 7.504-11.36 7.504-18.096s-2.736-13.344-7.504-18.096c-4.768-4.768-11.36-7.504-18.096-7.504zM742.4 768c-6.736 0-13.344 2.736-18.098 7.504-4.766 4.768-7.502 11.36-7.502 18.096s2.736 13.344 7.502 18.096c4.754 4.768 11.362 7.504 18.098 7.504s13.328-2.736 18.096-7.504c4.768-4.752 7.504-11.36 7.504-18.096s-2.736-13.344-7.504-18.096c-4.768-4.768-11.36-7.504-18.096-7.504zM640 716.8c-6.736 0-13.344 2.736-18.098 7.504-4.766 4.768-7.502 11.36-7.502 18.096s2.736 13.328 7.502 18.096c4.754 4.768 11.362 7.504 18.098 7.504s13.328-2.736 18.096-7.504c4.768-4.752 7.504-11.36 7.504-18.096s-2.736-13.344-7.504-18.096c-4.768-4.768-11.36-7.504-18.096-7.504zM742.4 665.6c-6.736 0-13.344 2.736-18.098 7.504-4.766 4.768-7.502 11.36-7.502 18.096s2.736 13.344 7.502 18.096c4.754 4.768 11.362 7.504 18.098 7.504s13.328-2.736 18.096-7.504c4.768-4.752 7.504-11.36 7.504-18.096s-2.736-13.344-7.504-18.096c-4.768-4.768-11.36-7.504-18.096-7.504zM844.8 819.2c-6.736 0-13.328 2.736-18.098 7.504-4.766 4.768-7.502 11.36-7.502 18.096s2.736 13.328 7.502 18.096c4.77 4.768 11.362 7.504 18.098 7.504s13.344-2.736 18.096-7.504c4.768-4.752 7.504-11.36 7.504-18.096s-2.736-13.344-7.504-18.096c-4.752-4.768-11.36-7.504-18.096-7.504zM844.8 921.6c-6.736 0-13.344 2.736-18.098 7.504-4.766 4.752-7.502 11.36-7.502 18.096s2.736 13.344 7.502 18.096c4.754 4.768 11.362 7.504 18.098 7.504s13.344-2.736 18.096-7.504c4.768-4.752 7.504-11.36 7.504-18.096s-2.736-13.344-7.504-18.096c-4.752-4.768-11.36-7.504-18.096-7.504zM844.8 716.8c-6.736 0-13.344 2.736-18.098 7.504-4.766 4.768-7.502 11.36-7.502 18.096s2.736 13.328 7.502 18.096c4.754 4.768 11.362 7.504 18.098 7.504s13.344-2.736 18.096-7.504c4.768-4.752 7.504-11.36 7.504-18.096s-2.736-13.344-7.504-18.096c-4.752-4.768-11.36-7.504-18.096-7.504zM844.8 614.4c-6.736 0-13.344 2.736-18.098 7.504-4.766 4.752-7.502 11.36-7.502 18.096s2.736 13.344 7.502 18.096c4.754 4.768 11.362 7.504 18.098 7.504s13.344-2.736 18.096-7.504c4.768-4.752 7.504-11.36 7.504-18.096s-2.736-13.344-7.504-18.096c-4.752-4.768-11.36-7.504-18.096-7.504z" />
<glyph unicode="&#xe620;" glyph-name="paint-roller" d="M896 768h-25.6v25.6c0 42.347-34.451 76.8-76.8 76.8h-716.8c-42.347 0-76.8-34.453-76.8-76.8v-102.4c0-42.347 34.453-76.8 76.8-76.8h716.8c42.349 0 76.8 34.453 76.8 76.8v25.6h25.6c14.115 0 25.6-11.485 25.6-25.6v-102.4c0-14.115-11.485-25.6-25.6-25.6h-409.6c-42.347 0-76.8-34.453-76.8-76.8v-81.203c-29.797-10.568-51.2-39.026-51.2-72.397v-256c0-42.347 34.453-76.8 76.8-76.8s76.8 34.453 76.8 76.8v256c0 33.371-21.403 61.829-51.2 72.397v81.203c0 14.115 11.485 25.6 25.6 25.6h409.6c42.347 0 76.8 34.453 76.8 76.8v102.4c0 42.347-34.453 76.8-76.8 76.8zM819.2 691.2c0-14.115-11.485-25.6-25.6-25.6h-716.8c-14.115 0-25.6 11.485-25.6 25.6v102.4c0 14.115 11.485 25.6 25.6 25.6h716.8c14.115 0 25.6-11.485 25.6-25.6v-102.4zM460.8 76.8c0-14.115-11.485-25.6-25.6-25.6s-25.6 11.485-25.6 25.6v256c0 14.115 11.485 25.6 25.6 25.6s25.6-11.485 25.6-25.6v-256z" />
<glyph unicode="&#xe621;" glyph-name="stamp" d="M896-51.2h-819.2c-14.138 0-25.6 11.461-25.6 25.6s11.462 25.6 25.6 25.6h819.2c14.139 0 25.6-11.461 25.6-25.6s-11.461-25.6-25.6-25.6zM896 256h-230.4c-27.754 0-51.2 35.17-51.2 76.8v257.893c61.166 35.464 102.4 101.659 102.4 177.307 0 112.928-91.874 204.8-204.8 204.8-112.928 0-204.8-91.872-204.8-204.8 0-75.65 41.232-141.845 102.4-177.307v-257.893c0-41.63-23.446-76.8-51.2-76.8h-281.6c-42.347 0-76.8-34.451-76.8-76.8v-51.2c0-42.349 34.453-76.8 76.8-76.8h819.2c42.349 0 76.8 34.451 76.8 76.8v51.2c0 42.349-34.451 76.8-76.8 76.8zM358.4 768c0 84.696 68.904 153.6 153.6 153.6s153.6-68.904 153.6-153.6-68.904-153.6-153.6-153.6-153.6 68.904-153.6 153.6zM460.8 332.8v236.88c16.37-4.229 33.528-6.48 51.2-6.48 17.674 0 34.83 2.251 51.2 6.48v-236.88c0-28.794 7.65-55.392 20.536-76.8h-143.472c12.886 21.408 20.536 48.006 20.536 76.8zM921.6 128c0-14.115-11.485-25.6-25.6-25.6h-819.2c-14.115 0-25.6 11.485-25.6 25.6v51.2c0 14.115 11.485 25.6 25.6 25.6h819.2c14.115 0 25.6-11.485 25.6-25.6v-51.2zM435.2 767.994c-2.832 0-5.709 0.474-8.531 1.47-13.331 4.712-20.317 19.338-15.605 32.667 10.27 29.059 37.741 56.53 66.803 66.805 13.334 4.714 27.957-2.274 32.669-15.602 4.712-13.331-2.272-27.957-15.602-32.669-14.502-5.128-30.472-21.096-35.597-35.595-3.715-10.51-13.592-17.077-24.138-17.077z" />
<glyph unicode="&#xe622;" glyph-name="tape" d="M409.6 614.4c-51.254 0-99.837 8.723-136.798 24.565-59.168 25.357-68.002 59.65-68.002 77.835s8.834 52.478 68.002 77.835c36.962 15.842 85.544 24.565 136.798 24.565s99.837-8.723 136.798-24.565c59.168-25.357 68.002-59.65 68.002-77.835s-8.834-52.478-68.002-77.835c-36.962-15.842-85.544-24.565-136.798-24.565zM409.6 768c-95.283 0-153.6-33.149-153.6-51.2s58.317-51.2 153.6-51.2 153.6 33.149 153.6 51.2-58.317 51.2-153.6 51.2zM1016.797 550.272c-3.454 3.57-81.41 83.189-201.379 131.141 2.488 11.61 3.782 23.421 3.782 35.387 0 70.89-44.357 136.544-124.899 184.869-76.45 45.869-177.558 71.131-284.701 71.131s-208.251-25.262-284.701-71.131c-80.542-48.325-124.899-113.979-124.899-184.869s44.357-136.544 124.899-184.869c9.216-5.53 18.8-10.754 28.701-15.675v-110.952c-43.387-21.573-79.715-48.754-105.669-79.237-31.357-36.829-47.931-78.763-47.931-121.267 0-70.89 44.357-136.544 124.899-184.869 76.45-45.87 177.558-71.131 284.701-71.131 97.085 0 191.050 21.251 264.584 59.84 61.379 32.211 105.73 74.926 128.216 122.701 18.267-13.915 37.189-29.733 56.686-47.434 68.197-61.917 118.824-124.874 119.323-125.499 4.955-6.192 12.366-9.61 19.995-9.61 2.832 0 5.693 0.47 8.469 1.445 10.259 3.598 17.126 13.285 17.126 24.157v558.069c0 6.645-2.582 13.029-7.203 17.803zM51.2 716.8c0 52.195 35.53 102.258 100.042 140.966 68.608 41.163 160.36 63.834 258.358 63.834s189.752-22.67 258.358-63.834c64.514-38.709 100.042-88.771 100.042-140.966 0-14.33-2.694-28.498-7.915-42.314-0.034-0.091-0.075-0.174-0.107-0.267-0.018-0.050-0.027-0.101-0.043-0.15-13.877-36.354-45.352-70.261-91.974-98.234-11.87-7.122-24.448-13.677-37.618-19.67-0.467-0.19-0.92-0.41-1.374-0.627-62.683-28.246-138.917-43.538-219.368-43.538-80.366 0-156.522 15.258-219.166 43.446-0.536 0.264-1.075 0.518-1.632 0.744-13.147 5.986-25.706 12.533-37.56 19.643-64.512 38.709-100.042 88.771-100.042 140.966zM409.6 460.8c73.040 0 143.269 11.75 204.8 33.755v-264.155c0-15.901-20.034-34.683-52.28-49.014-40.315-17.918-94.482-27.786-152.52-27.786s-112.205 9.867-152.52 27.786c-32.246 14.331-52.28 33.114-52.28 49.014v264.155c61.531-22.005 131.76-33.755 204.8-33.755zM650.394 53.978c-66.33-34.808-151.846-53.978-240.794-53.978-97.998 0-189.75 22.67-258.358 63.834-64.512 38.709-100.042 88.771-100.042 140.966 0 52.592 37.618 104.059 102.4 142.32v-116.72c0-38.082 29.365-72.102 82.686-95.802 46.717-20.765 108.269-32.198 173.314-32.198 65.046 0 126.597 11.434 173.314 32.198 40.189 17.862 66.76 41.59 77.414 68.499 29.102-4.622 62.483-18.736 99.248-41.878-15.942-40.707-54.034-78.302-109.182-107.242zM972.8 42.798c-20.946 22.749-47.992 50.557-78.779 78.544-86.651 78.774-163.328 123.291-228.421 132.733v262.181c9.901 4.923 19.485 10.146 28.701 15.675 47.648 28.589 82.624 63.242 103.251 101.456 89.309-36.034 154.32-92.261 175.248-111.779v-478.81z" />
<glyph unicode="&#xe623;" glyph-name="desk-tape" d="M955.32 561.824l0.016 0.048-577.677 193.637c-3.538 1.299-7.128 2.498-10.754 3.605l-0.368 0.123-0.003-0.013c-18.792 5.699-38.709 8.776-59.334 8.776-95.579 0-177.179-65.718-199.058-156.445-26.363 1.848-53.85 2.845-82.542 2.845-14.138 0-25.6-11.462-25.6-25.6 0-55.848 13.53-159.736 39.386-250.234 35.067-122.734 82.107-184.966 139.814-184.966l570.848-0.003c71.198 0.003 126.325 84.547 160.034 155.47 36.928 77.699 62.718 171.675 62.718 228.533 0 11.146-7.192 20.789-17.48 24.224zM307.2 716.8c15.395 0 30.264-2.286 44.298-6.522l8.938-2.997c58.534-21.694 100.365-78.093 100.365-144.082 0-12.922-1.582-25.578-4.694-37.854-15.36 6.722-31.373 13.366-48.098 19.819 1.048 5.902 1.592 11.92 1.592 18.035 0 56.464-45.936 102.4-102.4 102.4-25.792 0-50.435-9.622-69.39-27.096-11.88-10.95-20.867-24.376-26.443-39.181-16.64 2.81-33.8 5.283-51.506 7.373 18.858 64.27 78.206 110.104 147.339 110.104zM263.157 589.184c9.005 15.093 25.549 25.216 44.043 25.216 28.232 0 51.2-22.968 51.2-51.2 0-0.094-0.006-0.186-0.008-0.28-29.589 9.75-61.242 18.678-95.235 26.264zM863.837 331.045c-37.010-77.872-80.613-126.246-113.792-126.248l-0.258 0.002c-0.062 0-0.125 0-0.187 0l-570.4 0.002c-17.989 0-34.701 20.485-45.555 37.67-16.424 26.005-31.574 63.069-45.030 110.163-20.677 72.368-33.254 155.632-36.546 210.277 25.091-0.555 49.13-1.896 72.202-3.912 0.654-0.128 1.309-0.254 1.981-0.333 1.099-0.128 2.186-0.16 3.262-0.147 33.232-3.074 64.44-7.558 93.864-13.147 1.586-0.47 3.242-0.787 4.95-0.944 50.565-9.883 95.822-23.019 137.032-37.795 1.488-0.707 3.013-1.235 4.55-1.637 32.278-11.75 62.059-24.485 89.962-37.416 0.272-0.133 0.53-0.285 0.808-0.41 0.146-0.066 0.294-0.106 0.44-0.168 28.653-13.31 55.325-26.816 80.678-39.654 73.058-36.997 136.154-68.947 200.602-68.947 59.371 0 112.726 21.006 156.078 61.109-9.459-29.822-21.323-60.443-34.642-88.464zM881.67 475.922c-37.219-44.008-84.077-66.322-139.27-66.322-52.226 0-107.496 27.989-177.469 63.424-19.318 9.782-39.816 20.158-61.718 30.669 5.829 19.181 8.787 39.106 8.787 59.507 0 37.326-10.043 72.349-27.562 102.517l428.013-143.469c-6.686-12.965-16.76-29.749-30.781-46.326z" />
<glyph unicode="&#xe624;" glyph-name="texture" d="M25.6 870.4c-6.736 0-13.328 2.736-18.096 7.504-4.768 4.752-7.504 11.36-7.504 18.096s2.736 13.344 7.504 18.096c4.768 4.768 11.36 7.504 18.096 7.504s13.344-2.736 18.096-7.504c4.768-4.768 7.504-11.36 7.504-18.096s-2.736-13.328-7.504-18.096-11.36-7.504-18.096-7.504zM128 870.4c-6.736 0-13.328 2.736-18.096 7.504-4.768 4.752-7.504 11.36-7.504 18.096s2.736 13.344 7.504 18.096c4.752 4.768 11.36 7.504 18.096 7.504s13.344-2.736 18.096-7.504c4.768-4.768 7.504-11.36 7.504-18.096s-2.736-13.328-7.504-18.096-11.36-7.504-18.096-7.504zM230.4 870.4c-6.736 0-13.344 2.736-18.096 7.504-4.768 4.752-7.504 11.36-7.504 18.096s2.736 13.328 7.504 18.096 11.36 7.504 18.096 7.504 13.344-2.736 18.096-7.504c4.768-4.752 7.504-11.36 7.504-18.096s-2.736-13.344-7.504-18.096c-4.752-4.768-11.36-7.504-18.096-7.504zM332.8 870.4c-6.736 0-13.328 2.736-18.096 7.504s-7.504 11.36-7.504 18.096 2.736 13.328 7.504 18.096 11.36 7.504 18.096 7.504 13.328-2.736 18.096-7.504 7.504-11.36 7.504-18.096-2.736-13.328-7.504-18.096-11.36-7.504-18.096-7.504zM435.2 870.4c-6.736 0-13.328 2.736-18.096 7.504-4.768 4.752-7.504 11.36-7.504 18.096s2.736 13.344 7.504 18.096c4.752 4.768 11.36 7.504 18.096 7.504s13.328-2.736 18.096-7.504c4.768-4.752 7.504-11.36 7.504-18.096s-2.736-13.344-7.504-18.096c-4.768-4.768-11.36-7.504-18.096-7.504zM947.2 870.4h-409.6c-14.139 0-25.6 11.462-25.6 25.6s11.461 25.6 25.6 25.6h409.6c14.139 0 25.6-11.462 25.6-25.6s-11.461-25.6-25.6-25.6zM25.6 768c-6.736 0-13.328 2.736-18.096 7.504-4.768 4.752-7.504 11.36-7.504 18.096s2.736 13.344 7.504 18.096c4.752 4.768 11.36 7.504 18.096 7.504s13.344-2.736 18.096-7.504c4.768-4.752 7.504-11.36 7.504-18.096s-2.736-13.344-7.504-18.096c-4.752-4.768-11.36-7.504-18.096-7.504zM128 768c-6.736 0-13.344 2.736-18.096 7.504-4.768 4.752-7.504 11.36-7.504 18.096s2.736 13.344 7.504 18.096c4.752 4.768 11.36 7.504 18.096 7.504s13.344-2.736 18.096-7.504c4.768-4.768 7.504-11.36 7.504-18.096s-2.736-13.328-7.504-18.096c-4.752-4.768-11.36-7.504-18.096-7.504zM230.4 768c-6.736 0-13.328 2.736-18.096 7.504s-7.504 11.36-7.504 18.096 2.736 13.344 7.504 18.096c4.752 4.768 11.36 7.504 18.096 7.504s13.344-2.736 18.096-7.504c4.768-4.752 7.504-11.36 7.504-18.096s-2.736-13.344-7.504-18.096c-4.752-4.768-11.36-7.504-18.096-7.504zM332.8 768c-6.736 0-13.344 2.736-18.096 7.504-4.768 4.752-7.504 11.36-7.504 18.096s2.736 13.344 7.504 18.096c4.752 4.768 11.36 7.504 18.096 7.504s13.344-2.736 18.096-7.504c4.768-4.768 7.504-11.36 7.504-18.096s-2.736-13.328-7.504-18.096c-4.752-4.768-11.36-7.504-18.096-7.504zM435.2 768c-6.736 0-13.328 2.736-18.096 7.504s-7.504 11.36-7.504 18.096 2.736 13.328 7.504 18.096c4.752 4.768 11.36 7.504 18.096 7.504s13.328-2.736 18.096-7.504c4.768-4.752 7.504-11.36 7.504-18.096s-2.736-13.344-7.504-18.096c-4.768-4.768-11.36-7.504-18.096-7.504zM947.2 768h-409.6c-14.139 0-25.6 11.462-25.6 25.6s11.461 25.6 25.6 25.6h409.6c14.139 0 25.6-11.462 25.6-25.6s-11.461-25.6-25.6-25.6zM25.6 665.6c-6.736 0-13.344 2.736-18.096 7.504-4.768 4.752-7.504 11.36-7.504 18.096s2.736 13.344 7.504 18.096c4.752 4.768 11.36 7.504 18.096 7.504s13.328-2.736 18.096-7.504 7.504-11.36 7.504-18.096-2.736-13.344-7.504-18.096c-4.768-4.768-11.36-7.504-18.096-7.504zM128 665.6c-6.736 0-13.328 2.736-18.096 7.504-4.768 4.752-7.504 11.36-7.504 18.096s2.736 13.328 7.504 18.096 11.36 7.504 18.096 7.504 13.344-2.736 18.096-7.504c4.768-4.768 7.504-11.36 7.504-18.096s-2.736-13.344-7.504-18.096c-4.752-4.768-11.36-7.504-18.096-7.504zM230.4 665.6c-6.736 0-13.328 2.736-18.096 7.504-4.768 4.752-7.504 11.36-7.504 18.096s2.736 13.344 7.504 18.096c4.768 4.768 11.36 7.504 18.096 7.504s13.328-2.736 18.096-7.504c4.768-4.752 7.504-11.36 7.504-18.096s-2.736-13.344-7.504-18.096c-4.768-4.768-11.36-7.504-18.096-7.504zM332.8 665.6c-6.736 0-13.344 2.736-18.096 7.504-4.768 4.752-7.504 11.36-7.504 18.096s2.736 13.344 7.504 18.096c4.752 4.768 11.36 7.504 18.096 7.504s13.344-2.736 18.096-7.504c4.768-4.768 7.504-11.36 7.504-18.096s-2.736-13.328-7.504-18.096c-4.752-4.768-11.36-7.504-18.096-7.504zM435.2 665.6c-6.736 0-13.328 2.736-18.096 7.504-4.768 4.752-7.504 11.36-7.504 18.096s2.736 13.344 7.504 18.096c4.752 4.768 11.36 7.504 18.096 7.504s13.344-2.736 18.096-7.504c4.768-4.752 7.504-11.36 7.504-18.096s-2.736-13.344-7.504-18.096c-4.768-4.768-11.36-7.504-18.096-7.504zM947.2 665.6h-409.6c-14.139 0-25.6 11.462-25.6 25.6s11.461 25.6 25.6 25.6h409.6c14.139 0 25.6-11.462 25.6-25.6s-11.461-25.6-25.6-25.6zM25.6 563.2c-6.736 0-13.328 2.736-18.096 7.504-4.768 4.752-7.504 11.36-7.504 18.096s2.736 13.344 7.504 18.096c4.768 4.768 11.36 7.504 18.096 7.504s13.344-2.736 18.096-7.504c4.768-4.752 7.504-11.36 7.504-18.096s-2.736-13.344-7.504-18.096c-4.752-4.768-11.36-7.504-18.096-7.504zM128 563.2c-6.736 0-13.344 2.736-18.096 7.504-4.768 4.752-7.504 11.36-7.504 18.096s2.736 13.344 7.504 18.096c4.752 4.768 11.36 7.504 18.096 7.504s13.344-2.736 18.096-7.504c4.768-4.752 7.504-11.36 7.504-18.096s-2.736-13.344-7.504-18.096c-4.752-4.768-11.36-7.504-18.096-7.504zM230.4 563.2c-6.736 0-13.344 2.736-18.096 7.504-4.768 4.752-7.504 11.36-7.504 18.096s2.736 13.344 7.504 18.096c4.752 4.768 11.36 7.504 18.096 7.504s13.344-2.736 18.096-7.504c4.768-4.752 7.504-11.36 7.504-18.096s-2.736-13.328-7.504-18.096c-4.752-4.768-11.36-7.504-18.096-7.504zM332.8 563.2c-6.736 0-13.328 2.736-18.096 7.504s-7.504 11.36-7.504 18.096 2.736 13.344 7.504 18.096c4.768 4.768 11.36 7.504 18.096 7.504s13.328-2.736 18.096-7.504c4.768-4.752 7.504-11.36 7.504-18.096s-2.736-13.344-7.504-18.096c-4.768-4.768-11.36-7.504-18.096-7.504zM435.2 563.2c-6.736 0-13.344 2.736-18.096 7.504-4.768 4.768-7.504 11.36-7.504 18.096s2.736 13.328 7.504 18.096 11.36 7.504 18.096 7.504 13.328-2.736 18.096-7.504c4.768-4.752 7.504-11.36 7.504-18.096s-2.736-13.344-7.504-18.096c-4.768-4.768-11.36-7.504-18.096-7.504zM947.2 563.2h-409.6c-14.139 0-25.6 11.462-25.6 25.6s11.461 25.6 25.6 25.6h409.6c14.139 0 25.6-11.462 25.6-25.6s-11.461-25.6-25.6-25.6zM25.6 460.8c-6.736 0-13.328 2.736-18.096 7.504-4.768 4.752-7.504 11.36-7.504 18.096s2.736 13.344 7.504 18.096c4.752 4.768 11.36 7.504 18.096 7.504s13.344-2.736 18.096-7.504c4.768-4.768 7.504-11.36 7.504-18.096s-2.736-13.328-7.504-18.096-11.36-7.504-18.096-7.504zM128 460.8c-6.736 0-13.328 2.736-18.096 7.504-4.768 4.752-7.504 11.36-7.504 18.096s2.736 13.344 7.504 18.096c4.752 4.768 11.36 7.504 18.096 7.504s13.344-2.736 18.096-7.504c4.768-4.752 7.504-11.36 7.504-18.096s-2.736-13.344-7.504-18.096c-4.768-4.768-11.36-7.504-18.096-7.504zM230.4 460.8c-6.736 0-13.328 2.736-18.096 7.504-4.768 4.752-7.504 11.36-7.504 18.096s2.736 13.344 7.504 18.096c4.752 4.768 11.36 7.504 18.096 7.504s13.344-2.736 18.096-7.504c4.768-4.752 7.504-11.36 7.504-18.096s-2.736-13.328-7.504-18.096-11.36-7.504-18.096-7.504zM332.8 460.8c-6.736 0-13.328 2.736-18.096 7.504-4.768 4.752-7.504 11.36-7.504 18.096s2.736 13.344 7.504 18.096c4.752 4.768 11.36 7.504 18.096 7.504s13.344-2.736 18.096-7.504c4.768-4.768 7.504-11.36 7.504-18.096s-2.736-13.328-7.504-18.096-11.36-7.504-18.096-7.504zM435.2 460.8c-6.736 0-13.328 2.736-18.096 7.504s-7.504 11.36-7.504 18.096 2.736 13.328 7.504 18.096c4.752 4.768 11.36 7.504 18.096 7.504s13.344-2.736 18.096-7.504c4.768-4.752 7.504-11.36 7.504-18.096s-2.736-13.344-7.504-18.096c-4.768-4.768-11.36-7.504-18.096-7.504zM947.2 460.8h-409.6c-14.139 0-25.6 11.462-25.6 25.6s11.461 25.6 25.6 25.6h409.6c14.139 0 25.6-11.462 25.6-25.6s-11.461-25.6-25.6-25.6zM25.6-51.2c-14.138 0-25.6 11.461-25.6 25.6v409.6c0 14.139 11.462 25.6 25.6 25.6s25.6-11.461 25.6-25.6v-409.6c0-14.139-11.462-25.6-25.6-25.6zM128-51.2c-14.138 0-25.6 11.461-25.6 25.6v409.6c0 14.139 11.462 25.6 25.6 25.6s25.6-11.461 25.6-25.6v-409.6c0-14.139-11.462-25.6-25.6-25.6zM230.4-51.2c-14.138 0-25.6 11.461-25.6 25.6v409.6c0 14.139 11.462 25.6 25.6 25.6s25.6-11.461 25.6-25.6v-409.6c0-14.139-11.462-25.6-25.6-25.6zM332.8-51.2c-14.138 0-25.6 11.461-25.6 25.6v409.6c0 14.139 11.462 25.6 25.6 25.6s25.6-11.461 25.6-25.6v-409.6c0-14.139-11.462-25.6-25.6-25.6zM435.2-51.2c-14.138 0-25.6 11.461-25.6 25.6v409.6c0 14.139 11.462 25.6 25.6 25.6s25.6-11.461 25.6-25.6v-409.6c0-14.139-11.462-25.6-25.6-25.6zM947.2 409.6h-409.6c-14.139 0-25.6-11.461-25.6-25.6v-409.6c0-14.139 11.461-25.6 25.6-25.6h409.6c14.139 0 25.6 11.461 25.6 25.6v409.6c0 14.139-11.461 25.6-25.6 25.6zM716.8 204.8h-51.2v51.2h51.2v-51.2zM768 256h51.2v-51.2h-51.2v51.2zM614.4 204.8h-51.2v51.2h51.2v-51.2zM614.4 153.6v-51.2h-51.2v51.2h51.2zM665.6 153.6h51.2v-51.2h-51.2v51.2zM768 153.6h51.2v-51.2h-51.2v51.2zM870.4 153.6h51.2v-51.2h-51.2v51.2zM870.4 204.8v51.2h51.2v-51.2h-51.2zM870.4 307.2v51.2h51.2v-51.2h-51.2zM819.2 307.2h-51.2v51.2h51.2v-51.2zM716.8 307.2h-51.2v51.2h51.2v-51.2zM614.4 307.2h-51.2v51.2h51.2v-51.2zM563.2 51.2h51.2v-51.2h-51.2v51.2zM665.6 51.2h51.2v-51.2h-51.2v51.2zM768 51.2h51.2v-51.2h-51.2v51.2zM870.4 51.2h51.2v-51.2h-51.2v51.2z" />
<glyph unicode="&#xe625;" glyph-name="eye-dropper" d="M972.8 769.286c0 40.685-15.843 78.934-44.613 107.701-28.766 28.77-67.018 44.613-107.701 44.613-40.686 0-78.934-15.843-107.701-44.613l-175.186-175.184-33.099 33.099c-9.997 9.998-26.206 9.998-36.203 0s-9.998-26.206 0-36.203l58.699-58.699-364.298-364.301c-19.896-19.896-31.699-46.294-33.693-73.886-44.626-11.040-77.806-51.424-77.806-99.413 0-56.464 45.936-102.4 102.4-102.4 47.989 0 88.373 33.181 99.414 77.806 27.59 1.995 53.994 13.798 73.886 33.694l364.299 364.296 58.699-58.699c4.998-4.998 11.549-7.498 18.101-7.498s13.102 2.499 18.101 7.499c9.998 9.997 9.998 26.206 0 36.203l-33.098 33.098 175.184 175.184c28.77 28.768 44.613 67.018 44.613 107.702zM290.699 147.699c-14.685-14.683-35.722-21.483-56.264-18.182-7.51 1.205-15.168-0.992-20.898-5.995-5.73-5.005-8.936-12.299-8.752-19.901 0.010-0.406 0.014-0.813 0.014-1.221 0-28.232-22.968-51.2-51.2-51.2s-51.2 22.968-51.2 51.2 22.968 51.2 51.2 51.2c0.419 0 0.837-0.005 1.254-0.014 7.603-0.147 14.883 3.035 19.88 8.766 4.997 5.728 7.189 13.379 5.984 20.888-3.298 20.544 3.501 41.574 18.184 56.261l364.298 364.296 91.797-91.797-364.298-364.301zM891.984 697.787l-175.184-175.184-142.997 142.997 175.187 175.186c19.094 19.096 44.486 29.614 71.496 29.614 27.008 0 52.4-10.518 71.499-29.616s29.616-44.49 29.616-71.498-10.518-52.4-29.618-71.499z" />
<glyph unicode="&#xe626;" glyph-name="palette" d="M332.8 563.2c-42.347 0-76.8 34.453-76.8 76.8s34.453 76.8 76.8 76.8 76.8-34.453 76.8-76.8-34.453-76.8-76.8-76.8zM332.8 665.6c-14.115 0-25.6-11.485-25.6-25.6s11.485-25.6 25.6-25.6 25.6 11.485 25.6 25.6-11.485 25.6-25.6 25.6zM179.2 409.6c-42.347 0-76.8 34.451-76.8 76.8 0 42.347 34.453 76.8 76.8 76.8s76.8-34.453 76.8-76.8c0-42.349-34.453-76.8-76.8-76.8zM179.2 512c-14.115 0-25.6-11.485-25.6-25.6s11.485-25.6 25.6-25.6 25.6 11.485 25.6 25.6-11.485 25.6-25.6 25.6zM537.6 614.4c-42.347 0-76.8 34.453-76.8 76.8s34.453 76.8 76.8 76.8c42.349 0 76.8-34.453 76.8-76.8s-34.451-76.8-76.8-76.8zM537.6 716.8c-14.115 0-25.6-11.485-25.6-25.6s11.485-25.6 25.6-25.6 25.6 11.485 25.6 25.6-11.485 25.6-25.6 25.6zM512 0c-135.947 0-263.949 44.744-360.427 125.987-47.341 39.866-84.562 86.392-110.627 138.288-27.17 54.094-40.946 111.603-40.946 170.925s13.776 116.83 40.947 170.925c26.066 51.896 63.286 98.422 110.627 138.288 96.477 81.245 224.478 125.987 360.426 125.987s263.949-44.742 360.427-125.987c47.341-39.866 84.562-86.392 110.627-138.288 27.17-54.094 40.946-111.603 40.946-170.925 0-94.829-42.234-128.618-81.758-128.618-33.035 0-67.040 23.126-93.296 63.448-16.571 25.461-34.080 39.48-49.301 39.48-5.082 0-10.088-1.518-15.306-4.642-28.771-17.226-11.758-63.736 0.946-89.928 41.061-84.669 44.467-158.632 9.85-213.891-42.002-67.051-137.262-101.050-283.134-101.050zM512 819.2c-254.086 0-460.8-172.262-460.8-384s206.714-384 460.8-384c69.928 0 126.646 8.144 168.578 24.203 33.24 12.731 57.184 30.504 71.166 52.827 31.298 49.963 10.461 116.962-12.53 164.368-49.166 101.374-3.214 143.006 18.826 156.202 13.206 7.902 27.203 11.91 41.605 11.91 23.435 0 58.456-10.886 92.211-62.747 19.309-29.656 39.211-40.181 50.386-40.181 18.277 0 30.558 31.114 30.558 77.418 0 211.738-206.714 384-460.8 384zM563.2 153.6c-56.464 0-102.4 45.936-102.4 102.4s45.936 102.4 102.4 102.4c56.464 0 102.4-45.936 102.4-102.4s-45.936-102.4-102.4-102.4zM563.2 307.2c-28.232 0-51.2-22.968-51.2-51.2s22.968-51.2 51.2-51.2 51.2 22.968 51.2 51.2-22.968 51.2-51.2 51.2z" />
<glyph unicode="&#xe627;" glyph-name="color-sampler" d="M691.2 512c-42.349 0-76.8 34.453-76.8 76.8s34.451 76.8 76.8 76.8 76.8-34.453 76.8-76.8-34.451-76.8-76.8-76.8zM691.2 614.4c-14.115 0-25.6-11.485-25.6-25.6s11.485-25.6 25.6-25.6 25.6 11.485 25.6 25.6-11.485 25.6-25.6 25.6zM358.4 21.27c-20.554 0-39.84 7.966-54.304 22.43l-260.395 260.395c-14.466 14.464-22.432 33.75-22.432 54.304s7.966 39.84 22.434 54.306l490.794 490.792c14.464 14.466 33.75 22.432 54.304 22.432s39.84-7.966 54.304-22.432l260.394-260.392c29.944-29.944 29.944-78.667 0.002-108.611l-490.794-490.794c-14.466-14.466-33.752-22.43-54.306-22.43zM588.8 874.73c-6.878 0-13.306-2.64-18.101-7.435l-490.794-490.794c-4.795-4.795-7.435-11.224-7.435-18.101s2.64-13.306 7.435-18.099l260.394-260.397c4.795-4.794 11.224-7.434 18.101-7.434s13.307 2.64 18.102 7.435l490.794 490.792c9.979 9.982 9.979 26.224 0 36.205l-260.395 260.392c-4.795 4.795-11.222 7.435-18.101 7.435zM574.595-50.214c-15.034 0-29.726 4.552-42.49 13.325l-60.21 41.394c-11.651 8.010-14.602 23.949-6.592 35.598 8.010 11.651 23.947 14.605 35.598 6.592l60.21-41.394c5.456-3.75 11.971-5.102 18.325-3.822 6.363 1.288 11.832 5.067 15.4 10.645l279.6 436.875c7.622 11.909 23.458 15.379 35.363 7.763 11.907-7.622 15.382-23.453 7.763-35.363l-279.6-436.875c-11.114-17.366-28.293-29.166-48.371-33.229-4.998-1.008-10.018-1.509-14.997-1.509zM790.802-14.426c-6.112 0-12.202 0.973-18.098 2.939l-38.4 12.8c-13.413 4.47-20.662 18.966-16.19 32.381 4.47 13.411 18.966 20.664 32.381 16.19l38.4-12.8c0.699-0.234 2.826-0.939 6.466 1.011 4.357 2.331 9.957 8.293 12.613 18.034l63.328 232.205c3.72 13.64 17.794 21.675 31.434 17.963 13.64-3.72 21.683-17.794 17.963-31.434l-63.328-232.205c-5.976-21.912-19.773-40.030-37.85-49.704-9.152-4.898-18.962-7.381-28.718-7.381z" />
<glyph unicode="&#xe628;" glyph-name="bucket" d="M870.4 640c0 0.314-0.008 0.637-0.013 0.958 0 0.003 0 0.008-0.002 0.011-0.278 15.691-7.49 38.533-39.421 60.104-20.294 13.707-48.59 25.803-84.106 35.95-26.992 7.712-57.362 14.080-90.104 19-25.664 48.25-125.83 216.776-272.755 216.776-57.386 0-87.424-27.826-102.517-51.168-24.613-38.066-31.275-96.933-20.064-175.667-12.363-2.742-24.218-5.725-35.48-8.942-35.515-10.147-63.813-22.243-84.104-35.95-31.934-21.573-39.144-44.416-39.422-60.106 0 0 0 0 0-0.002-0.005-0.323-0.013-0.648-0.013-0.965 0-4.587 0.592-9.83 2.23-15.498l96.31-577.859c3.494-20.971 18.87-44.752 36.56-56.544 6.339-4.227 67.194-41.299 248.899-41.299s242.56 37.072 248.899 41.299c17.69 11.792 33.064 35.57 36.562 56.544l96.309 577.859c1.638 5.667 2.23 10.91 2.23 15.498zM819.037 641.146l-0.694-4.163c-4.075-8.467-23.995-27.189-85.55-44.776-65.467-18.706-152.971-29.006-246.392-29.006-44.32 0-87.302 2.323-127.238 6.757-6.859 20.038-13.763 41.509-20.19 63.638-7.317 25.19-13.352 49.018-18.144 71.395 50.15 7.712 106.683 11.81 165.573 11.81 52.49 0 103.109-3.253 149.005-9.421 0.717-0.131 1.438-0.23 2.168-0.301 34.947-4.782 67.118-11.258 95.221-19.286 66.624-19.034 84.469-39.395 86.243-46.646zM614.4 332.8c0-14.115-11.485-25.6-25.6-25.6s-25.6 11.485-25.6 25.582c0.118 7.766 9.55 36.685 17.126 59.92 2.747 8.426 5.618 17.227 8.474 26.227 2.856-9 5.726-17.802 8.474-26.227 7.576-23.235 17.008-52.154 17.126-59.902zM324.478 893.832c12.25 18.944 31.163 27.768 59.522 27.768 96 0 172.384-99.426 209.104-158.104-34.202 2.966-70.066 4.504-106.704 4.504-61.824 0-121.435-4.378-174.578-12.619-8.886 63.843-4.766 111.506 12.656 138.451zM240.005 687.794c9.68 2.766 19.853 5.342 30.445 7.734 5.094-23.915 11.542-49.322 19.354-76.213 4.101-14.118 8.368-27.93 12.686-41.27-22.43 3.978-43.4 8.71-62.485 14.163-61.552 17.587-81.474 36.309-85.549 44.776l-0.694 4.163c1.774 7.25 19.622 27.611 86.243 46.646zM721.358 55.061c-1.144-6.859-8.389-18.134-14.216-22.195-3.098-1.8-59.101-32.866-220.742-32.866-161.653 0-217.653 31.069-220.741 32.866-5.827 4.059-13.070 15.334-14.214 22.195l-84.984 509.896c16.69-8.075 36.573-15.434 59.48-21.979 28.443-8.126 60.627-14.768 95.398-19.787 20.562-56.627 38.219-96.059 39.317-98.494 4.267-9.485 13.595-15.101 23.36-15.101 3.512 0 7.080 0.726 10.491 2.261 12.893 5.802 18.642 20.958 12.84 33.85-0.221 0.491-12.768 28.51-28.898 70.91 34.574-3.040 70.864-4.616 107.95-4.616 25.331 0 50.288 0.741 74.584 2.174-5.141-31.394-18.296-71.744-29.336-105.598-12.91-39.595-19.648-60.947-19.648-75.776 0-42.349 34.451-76.8 76.8-76.8s76.8 34.451 76.8 76.8c0 14.829-6.738 36.181-19.648 75.776-11.582 35.517-25.488 78.179-30.030 110.152 48.472 5.232 93.029 13.418 130.938 24.248 22.906 6.544 42.79 13.904 59.482 21.979l-84.982-509.894z" />
<glyph unicode="&#xe629;" glyph-name="gradient" d="M947.2-51.2h-870.4c-42.347 0-76.8 34.451-76.8 76.8v870.4c0 42.347 34.453 76.8 76.8 76.8h870.4c42.349 0 76.8-34.453 76.8-76.8v-870.4c0-42.349-34.451-76.8-76.8-76.8zM76.8 921.6c-14.115 0-25.6-11.485-25.6-25.6v-870.4c0-14.115 11.485-25.6 25.6-25.6h870.4c14.115 0 25.6 11.485 25.6 25.6v870.4c0 14.115-11.485 25.6-25.6 25.6h-870.4zM256 844.8c0-14.138-11.462-25.6-25.6-25.6s-25.6 11.462-25.6 25.6c0 14.138 11.462 25.6 25.6 25.6s25.6-11.462 25.6-25.6zM256 793.6c0-14.138-11.462-25.6-25.6-25.6s-25.6 11.462-25.6 25.6c0 14.138 11.462 25.6 25.6 25.6s25.6-11.462 25.6-25.6zM256 742.4c0-14.138-11.462-25.6-25.6-25.6s-25.6 11.462-25.6 25.6c0 14.138 11.462 25.6 25.6 25.6s25.6-11.462 25.6-25.6zM256 691.2c0-14.138-11.462-25.6-25.6-25.6s-25.6 11.462-25.6 25.6c0 14.138 11.462 25.6 25.6 25.6s25.6-11.462 25.6-25.6zM256 640c0-14.138-11.462-25.6-25.6-25.6s-25.6 11.462-25.6 25.6c0 14.138 11.462 25.6 25.6 25.6s25.6-11.462 25.6-25.6zM256 588.8c0-14.138-11.462-25.6-25.6-25.6s-25.6 11.462-25.6 25.6c0 14.138 11.462 25.6 25.6 25.6s25.6-11.462 25.6-25.6zM256 537.6c0-14.138-11.462-25.6-25.6-25.6s-25.6 11.462-25.6 25.6c0 14.138 11.462 25.6 25.6 25.6s25.6-11.462 25.6-25.6zM256 486.4c0-14.138-11.462-25.6-25.6-25.6s-25.6 11.462-25.6 25.6c0 14.138 11.462 25.6 25.6 25.6s25.6-11.462 25.6-25.6zM256 435.2c0-14.138-11.462-25.6-25.6-25.6s-25.6 11.462-25.6 25.6c0 14.138 11.462 25.6 25.6 25.6s25.6-11.462 25.6-25.6zM256 384c0-14.138-11.462-25.6-25.6-25.6s-25.6 11.462-25.6 25.6c0 14.138 11.462 25.6 25.6 25.6s25.6-11.462 25.6-25.6zM256 332.8c0-14.138-11.462-25.6-25.6-25.6s-25.6 11.462-25.6 25.6c0 14.138 11.462 25.6 25.6 25.6s25.6-11.462 25.6-25.6zM256 281.6c0-14.138-11.462-25.6-25.6-25.6s-25.6 11.462-25.6 25.6c0 14.138 11.462 25.6 25.6 25.6s25.6-11.462 25.6-25.6zM256 230.4c0-14.138-11.462-25.6-25.6-25.6s-25.6 11.462-25.6 25.6c0 14.138 11.462 25.6 25.6 25.6s25.6-11.462 25.6-25.6zM256 179.2c0-14.138-11.462-25.6-25.6-25.6s-25.6 11.462-25.6 25.6c0 14.138 11.462 25.6 25.6 25.6s25.6-11.462 25.6-25.6zM256 128c0-14.138-11.462-25.6-25.6-25.6s-25.6 11.462-25.6 25.6c0 14.138 11.462 25.6 25.6 25.6s25.6-11.462 25.6-25.6zM307.2 844.8c0-14.138-11.462-25.6-25.6-25.6s-25.6 11.462-25.6 25.6c0 14.138 11.462 25.6 25.6 25.6s25.6-11.462 25.6-25.6zM307.2 742.4c0-14.138-11.462-25.6-25.6-25.6s-25.6 11.462-25.6 25.6c0 14.138 11.462 25.6 25.6 25.6s25.6-11.462 25.6-25.6zM307.2 640c0-14.138-11.462-25.6-25.6-25.6s-25.6 11.462-25.6 25.6c0 14.138 11.462 25.6 25.6 25.6s25.6-11.462 25.6-25.6zM307.2 537.6c0-14.138-11.462-25.6-25.6-25.6s-25.6 11.462-25.6 25.6c0 14.138 11.462 25.6 25.6 25.6s25.6-11.462 25.6-25.6zM307.2 435.2c0-14.138-11.462-25.6-25.6-25.6s-25.6 11.462-25.6 25.6c0 14.138 11.462 25.6 25.6 25.6s25.6-11.462 25.6-25.6zM307.2 332.8c0-14.138-11.462-25.6-25.6-25.6s-25.6 11.462-25.6 25.6c0 14.138 11.462 25.6 25.6 25.6s25.6-11.462 25.6-25.6zM307.2 230.4c0-14.138-11.462-25.6-25.6-25.6s-25.6 11.462-25.6 25.6c0 14.138 11.462 25.6 25.6 25.6s25.6-11.462 25.6-25.6zM307.2 128c0-14.138-11.462-25.6-25.6-25.6s-25.6 11.462-25.6 25.6c0 14.138 11.462 25.6 25.6 25.6s25.6-11.462 25.6-25.6zM358.4 793.6c0-14.138-11.462-25.6-25.6-25.6s-25.6 11.462-25.6 25.6c0 14.138 11.462 25.6 25.6 25.6s25.6-11.462 25.6-25.6zM358.4 691.2c0-14.138-11.462-25.6-25.6-25.6s-25.6 11.462-25.6 25.6c0 14.138 11.462 25.6 25.6 25.6s25.6-11.462 25.6-25.6zM358.4 588.8c0-14.138-11.462-25.6-25.6-25.6s-25.6 11.462-25.6 25.6c0 14.138 11.462 25.6 25.6 25.6s25.6-11.462 25.6-25.6zM358.4 486.4c0-14.138-11.462-25.6-25.6-25.6s-25.6 11.462-25.6 25.6c0 14.138 11.462 25.6 25.6 25.6s25.6-11.462 25.6-25.6zM358.4 384c0-14.138-11.462-25.6-25.6-25.6s-25.6 11.462-25.6 25.6c0 14.138 11.462 25.6 25.6 25.6s25.6-11.462 25.6-25.6zM358.4 281.6c0-14.138-11.462-25.6-25.6-25.6s-25.6 11.462-25.6 25.6c0 14.138 11.462 25.6 25.6 25.6s25.6-11.462 25.6-25.6zM358.4 179.2c0-14.138-11.462-25.6-25.6-25.6s-25.6 11.462-25.6 25.6c0 14.138 11.462 25.6 25.6 25.6s25.6-11.462 25.6-25.6zM358.4 76.8c0-14.138-11.462-25.6-25.6-25.6s-25.6 11.462-25.6 25.6c0 14.138 11.462 25.6 25.6 25.6s25.6-11.462 25.6-25.6zM460.8 844.8c0-14.138-11.462-25.6-25.6-25.6s-25.6 11.462-25.6 25.6c0 14.138 11.462 25.6 25.6 25.6s25.6-11.462 25.6-25.6zM460.8 742.4c0-14.138-11.462-25.6-25.6-25.6s-25.6 11.462-25.6 25.6c0 14.138 11.462 25.6 25.6 25.6s25.6-11.462 25.6-25.6zM460.8 640c0-14.138-11.462-25.6-25.6-25.6s-25.6 11.462-25.6 25.6c0 14.138 11.462 25.6 25.6 25.6s25.6-11.462 25.6-25.6zM460.8 537.6c0-14.138-11.462-25.6-25.6-25.6s-25.6 11.462-25.6 25.6c0 14.138 11.462 25.6 25.6 25.6s25.6-11.462 25.6-25.6zM460.8 435.2c0-14.138-11.462-25.6-25.6-25.6s-25.6 11.462-25.6 25.6c0 14.138 11.462 25.6 25.6 25.6s25.6-11.462 25.6-25.6zM460.8 332.8c0-14.138-11.462-25.6-25.6-25.6s-25.6 11.462-25.6 25.6c0 14.138 11.462 25.6 25.6 25.6s25.6-11.462 25.6-25.6zM460.8 230.4c0-14.138-11.462-25.6-25.6-25.6s-25.6 11.462-25.6 25.6c0 14.138 11.462 25.6 25.6 25.6s25.6-11.462 25.6-25.6zM460.8 128c0-14.138-11.462-25.6-25.6-25.6s-25.6 11.462-25.6 25.6c0 14.138 11.462 25.6 25.6 25.6s25.6-11.462 25.6-25.6zM563.2 793.6c0-14.138-11.462-25.6-25.6-25.6s-25.6 11.462-25.6 25.6c0 14.138 11.462 25.6 25.6 25.6s25.6-11.462 25.6-25.6zM563.2 691.2c0-14.138-11.462-25.6-25.6-25.6s-25.6 11.462-25.6 25.6c0 14.138 11.462 25.6 25.6 25.6s25.6-11.462 25.6-25.6zM563.2 588.8c0-14.138-11.462-25.6-25.6-25.6s-25.6 11.462-25.6 25.6c0 14.138 11.462 25.6 25.6 25.6s25.6-11.462 25.6-25.6zM563.2 486.4c0-14.138-11.462-25.6-25.6-25.6s-25.6 11.462-25.6 25.6c0 14.138 11.462 25.6 25.6 25.6s25.6-11.462 25.6-25.6zM563.2 384c0-14.138-11.462-25.6-25.6-25.6s-25.6 11.462-25.6 25.6c0 14.138 11.462 25.6 25.6 25.6s25.6-11.462 25.6-25.6zM563.2 281.6c0-14.138-11.462-25.6-25.6-25.6s-25.6 11.462-25.6 25.6c0 14.138 11.462 25.6 25.6 25.6s25.6-11.462 25.6-25.6zM563.2 179.2c0-14.138-11.462-25.6-25.6-25.6s-25.6 11.462-25.6 25.6c0 14.138 11.462 25.6 25.6 25.6s25.6-11.462 25.6-25.6zM563.2 76.8c0-14.138-11.462-25.6-25.6-25.6s-25.6 11.462-25.6 25.6c0 14.138 11.462 25.6 25.6 25.6s25.6-11.462 25.6-25.6zM256 76.8c0-14.138-11.462-25.6-25.6-25.6s-25.6 11.462-25.6 25.6c0 14.138 11.462 25.6 25.6 25.6s25.6-11.462 25.6-25.6zM204.8 844.8c0-14.138-11.462-25.6-25.6-25.6s-25.6 11.462-25.6 25.6c0 14.138 11.462 25.6 25.6 25.6s25.6-11.462 25.6-25.6zM204.8 793.6c0-14.138-11.462-25.6-25.6-25.6s-25.6 11.462-25.6 25.6c0 14.138 11.462 25.6 25.6 25.6s25.6-11.462 25.6-25.6zM204.8 742.4c0-14.138-11.462-25.6-25.6-25.6s-25.6 11.462-25.6 25.6c0 14.138 11.462 25.6 25.6 25.6s25.6-11.462 25.6-25.6zM204.8 691.2c0-14.138-11.462-25.6-25.6-25.6s-25.6 11.462-25.6 25.6c0 14.138 11.462 25.6 25.6 25.6s25.6-11.462 25.6-25.6zM204.8 640c0-14.138-11.462-25.6-25.6-25.6s-25.6 11.462-25.6 25.6c0 14.138 11.462 25.6 25.6 25.6s25.6-11.462 25.6-25.6zM204.8 588.8c0-14.138-11.462-25.6-25.6-25.6s-25.6 11.462-25.6 25.6c0 14.138 11.462 25.6 25.6 25.6s25.6-11.462 25.6-25.6zM204.8 537.6c0-14.138-11.462-25.6-25.6-25.6s-25.6 11.462-25.6 25.6c0 14.138 11.462 25.6 25.6 25.6s25.6-11.462 25.6-25.6zM204.8 486.4c0-14.138-11.462-25.6-25.6-25.6s-25.6 11.462-25.6 25.6c0 14.138 11.462 25.6 25.6 25.6s25.6-11.462 25.6-25.6zM204.8 435.2c0-14.138-11.462-25.6-25.6-25.6s-25.6 11.462-25.6 25.6c0 14.138 11.462 25.6 25.6 25.6s25.6-11.462 25.6-25.6zM204.8 384c0-14.138-11.462-25.6-25.6-25.6s-25.6 11.462-25.6 25.6c0 14.138 11.462 25.6 25.6 25.6s25.6-11.462 25.6-25.6zM204.8 332.8c0-14.138-11.462-25.6-25.6-25.6s-25.6 11.462-25.6 25.6c0 14.138 11.462 25.6 25.6 25.6s25.6-11.462 25.6-25.6zM204.8 281.6c0-14.138-11.462-25.6-25.6-25.6s-25.6 11.462-25.6 25.6c0 14.138 11.462 25.6 25.6 25.6s25.6-11.462 25.6-25.6zM204.8 230.4c0-14.138-11.462-25.6-25.6-25.6s-25.6 11.462-25.6 25.6c0 14.138 11.462 25.6 25.6 25.6s25.6-11.462 25.6-25.6zM204.8 179.2c0-14.138-11.462-25.6-25.6-25.6s-25.6 11.462-25.6 25.6c0 14.138 11.462 25.6 25.6 25.6s25.6-11.462 25.6-25.6zM204.8 128c0-14.138-11.462-25.6-25.6-25.6s-25.6 11.462-25.6 25.6c0 14.138 11.462 25.6 25.6 25.6s25.6-11.462 25.6-25.6zM204.8 76.8c0-14.138-11.462-25.6-25.6-25.6s-25.6 11.462-25.6 25.6c0 14.138 11.462 25.6 25.6 25.6s25.6-11.462 25.6-25.6zM665.6 844.8c0-14.138-11.462-25.6-25.6-25.6s-25.6 11.462-25.6 25.6c0 14.138 11.462 25.6 25.6 25.6s25.6-11.462 25.6-25.6zM665.6 640c0-14.138-11.462-25.6-25.6-25.6s-25.6 11.462-25.6 25.6c0 14.138 11.462 25.6 25.6 25.6s25.6-11.462 25.6-25.6zM665.6 435.2c0-14.138-11.462-25.6-25.6-25.6s-25.6 11.462-25.6 25.6c0 14.138 11.462 25.6 25.6 25.6s25.6-11.462 25.6-25.6zM665.6 230.4c0-14.138-11.462-25.6-25.6-25.6s-25.6 11.462-25.6 25.6c0 14.138 11.462 25.6 25.6 25.6s25.6-11.462 25.6-25.6zM768 742.4c0-14.138-11.462-25.6-25.6-25.6s-25.6 11.462-25.6 25.6c0 14.138 11.462 25.6 25.6 25.6s25.6-11.462 25.6-25.6zM768 537.6c0-14.138-11.462-25.6-25.6-25.6s-25.6 11.462-25.6 25.6c0 14.138 11.462 25.6 25.6 25.6s25.6-11.462 25.6-25.6zM768 332.8c0-14.138-11.462-25.6-25.6-25.6s-25.6 11.462-25.6 25.6c0 14.138 11.462 25.6 25.6 25.6s25.6-11.462 25.6-25.6zM768 128c0-14.138-11.462-25.6-25.6-25.6s-25.6 11.462-25.6 25.6c0 14.138 11.462 25.6 25.6 25.6s25.6-11.462 25.6-25.6zM128 51.2c-14.138 0-25.6 11.461-25.6 25.6v768c0 14.138 11.462 25.6 25.6 25.6s25.6-11.462 25.6-25.6v-768c0-14.139-11.462-25.6-25.6-25.6z" />
<glyph unicode="&#xe62a;" glyph-name="gradient2" d="M947.2-51.2h-870.4c-42.347 0-76.8 34.451-76.8 76.8v870.4c0 42.347 34.453 76.8 76.8 76.8h870.4c42.349 0 76.8-34.453 76.8-76.8v-870.4c0-42.349-34.451-76.8-76.8-76.8zM76.8 921.6c-14.115 0-25.6-11.485-25.6-25.6v-870.4c0-14.115 11.485-25.6 25.6-25.6h870.4c14.115 0 25.6 11.485 25.6 25.6v870.4c0 14.115-11.485 25.6-25.6 25.6h-870.4zM548.203 460.8l365.898 365.899c9.998 9.997 9.998 26.206 0 36.203-9.997 9.998-26.206 9.998-36.203 0l-365.898-365.899-40.597 40.597 289.098 289.099c9.998 9.997 9.998 26.206 0 36.203-9.997 9.998-26.206 9.998-36.203 0l-289.098-289.099-40.597 40.597 212.298 212.299c9.998 9.997 9.998 26.206 0 36.203-9.997 9.998-26.206 9.998-36.203 0l-212.298-212.299-40.597 40.597 135.499 135.499c9.998 9.997 9.998 26.206 0 36.203-9.997 9.998-26.206 9.998-36.203 0l-135.499-135.499-40.597 40.597 58.699 58.699c9.998 9.997 9.998 26.206 0 36.203s-26.206 9.998-36.203 0l-58.699-58.699-58.699 58.698c-9.997 9.998-26.206 9.998-36.203 0-9.998-9.997-9.998-26.206 0-36.203l58.699-58.698-58.699-58.699c-9.998-9.997-9.998-26.206 0-36.203l58.699-58.698-58.699-58.699c-9.998-9.997-9.998-26.206 0-36.203l58.699-58.698-58.699-58.699c-9.998-9.997-9.998-26.206 0-36.203l58.699-58.698-58.699-58.699c-9.998-9.997-9.998-26.206 0-36.203l58.699-58.698-58.699-58.699c-9.998-9.997-9.998-26.206 0-36.203 5-4.998 11.55-7.498 18.102-7.498s13.102 2.499 18.101 7.499l58.699 58.698 58.699-58.699c4.998-4.998 11.549-7.498 18.101-7.498s13.102 2.499 18.101 7.499c9.998 9.997 9.998 26.206 0 36.203l-58.698 58.698 40.597 40.597 135.499-135.499c4.998-4.998 11.549-7.498 18.101-7.498s13.102 2.499 18.101 7.499c9.998 9.997 9.998 26.206 0 36.203l-135.498 135.498 40.597 40.597 212.299-212.299c4.998-4.998 11.549-7.498 18.101-7.498s13.102 2.499 18.101 7.499c9.998 9.997 9.998 26.206 0 36.203l-212.298 212.298 40.597 40.597 289.099-289.099c4.998-4.998 11.549-7.498 18.101-7.498s13.102 2.499 18.101 7.499c9.998 9.997 9.998 26.206 0 36.203l-289.098 289.098 40.597 40.597 365.899-365.899c4.998-4.998 11.549-7.498 18.101-7.498s13.102 2.499 18.101 7.499c9.998 9.997 9.998 26.206 0 36.203l-365.898 365.898zM398.997 537.6l-40.597-40.597-40.597 40.597 40.597 40.597 40.597-40.597zM322.197 460.8l-40.597-40.597-40.597 40.597 40.597 40.597 40.597-40.597zM322.197 614.4l-40.597-40.597-40.597 40.597 40.597 40.597 40.597-40.597zM164.203 691.2l40.597 40.597 40.597-40.597-40.597-40.597-40.597 40.597zM164.203 537.6l40.597 40.597 40.597-40.597-40.597-40.597-40.597 40.597zM164.203 384l40.597 40.597 40.597-40.597-40.597-40.597-40.597 40.597zM204.8 189.803l-40.597 40.597 40.597 40.597 40.597-40.597-40.597-40.597zM281.6 266.603l-40.597 40.597 40.597 40.597 40.597-40.597-40.597-40.597zM358.4 343.403l-40.597 40.597 40.597 40.597 40.597-40.597-40.597-40.597zM435.2 420.203l-40.597 40.597 40.597 40.597 40.597-40.597-40.597-40.597z" />
<glyph unicode="&#xe62b;" glyph-name="magic-wand" d="M588.8 614.4c-14.139 0-25.6 11.462-25.6 25.6 0 70.579-57.421 128-128 128-14.138 0-25.6 11.462-25.6 25.6s11.462 25.6 25.6 25.6c70.579 0 128 57.421 128 128 0 14.138 11.461 25.6 25.6 25.6s25.6-11.462 25.6-25.6c0-70.579 57.421-128 128-128 14.139 0 25.6-11.462 25.6-25.6s-11.461-25.6-25.6-25.6c-70.579 0-128-57.421-128-128 0-14.138-11.461-25.6-25.6-25.6zM527.426 793.6c25.11-15.136 46.238-36.264 61.374-61.376 15.136 25.112 36.264 46.24 61.376 61.376-25.112 15.136-46.24 36.264-61.376 61.376-15.136-25.112-36.264-46.24-61.374-61.376zM76.8 460.8c-14.138 0-25.6 11.462-25.6 25.6 0 14.115-11.485 25.6-25.6 25.6-14.138 0-25.6 11.462-25.6 25.6s11.462 25.6 25.6 25.6c14.115 0 25.6 11.485 25.6 25.6 0 14.138 11.462 25.6 25.6 25.6s25.6-11.462 25.6-25.6c0-14.115 11.485-25.6 25.6-25.6 14.138 0 25.6-11.462 25.6-25.6s-11.462-25.6-25.6-25.6c-14.115 0-25.6-11.485-25.6-25.6 0-14.138-11.462-25.6-25.6-25.6zM929.101 156.704l-541.995 541.994c-14.466 14.466-33.752 22.432-54.306 22.432s-39.84-7.966-54.306-22.432l-29.992-29.992c-14.466-14.466-22.432-33.752-22.432-54.306s7.966-39.84 22.432-54.306l541.994-541.992c14.464-14.466 33.75-22.434 54.304-22.434s39.84 7.965 54.306 22.434l29.994 29.992c14.466 14.464 22.432 33.752 22.432 54.304s-7.965 39.842-22.43 54.306zM284.706 632.502l29.992 29.992c4.795 4.795 11.224 7.435 18.102 7.435s13.307-2.64 18.102-7.435l73.691-73.693-66.197-66.197-73.691 73.691c-9.982 9.984-9.982 26.224 0 36.206zM892.894 84.298l-29.994-29.992c-4.794-4.794-11.224-7.434-18.099-7.434s-13.306 2.64-18.099 7.434l-432.102 432.099 66.197 66.195 432.098-432.099c9.981-9.981 9.981-26.222 0-36.203zM179.2 716.8c-14.138 0-25.6 11.462-25.6 25.6 0 42.347-34.453 76.8-76.8 76.8-14.138 0-25.6 11.462-25.6 25.6s11.462 25.6 25.6 25.6c42.347 0 76.8 34.453 76.8 76.8 0 14.138 11.462 25.6 25.6 25.6s25.6-11.462 25.6-25.6c0-42.347 34.453-76.8 76.8-76.8 14.138 0 25.6-11.462 25.6-25.6s-11.462-25.6-25.6-25.6c-42.347 0-76.8-34.453-76.8-76.8 0-14.138-11.462-25.6-25.6-25.6zM153.52 844.8c9.725-7.304 18.376-15.957 25.68-25.68 7.304 9.725 15.957 18.376 25.68 25.68-9.725 7.304-18.376 15.957-25.68 25.68-7.304-9.723-15.957-18.376-25.68-25.68zM179.2 204.8c-14.138 0-25.6 11.461-25.6 25.6 0 42.347-34.453 76.8-76.8 76.8-14.138 0-25.6 11.461-25.6 25.6s11.462 25.6 25.6 25.6c42.347 0 76.8 34.453 76.8 76.8 0 14.139 11.462 25.6 25.6 25.6s25.6-11.461 25.6-25.6c0-42.347 34.453-76.8 76.8-76.8 14.138 0 25.6-11.461 25.6-25.6s-11.462-25.6-25.6-25.6c-42.347 0-76.8-34.453-76.8-76.8 0-14.139-11.462-25.6-25.6-25.6zM153.52 332.8c9.725-7.302 18.376-15.957 25.68-25.68 7.304 9.723 15.957 18.374 25.68 25.68-9.725 7.302-18.376 15.957-25.68 25.68-7.304-9.723-15.957-18.378-25.68-25.68z" />
<glyph unicode="&#xe62c;" glyph-name="magnet" d="M869.987 900.579c-2.214 12.173-12.816 21.021-25.187 21.021h-204.8c-7.379 0-14.4-3.184-19.261-8.736s-7.090-12.933-6.114-20.246c0.509-3.824 50.974-383.478 50.974-483.018 0-86.131-67.469-153.6-153.6-153.6-84.696 0-153.6 68.904-153.6 153.6 0 96.163 50.469 479.189 50.979 483.046 0.966 7.31-1.267 14.683-6.128 20.229-4.861 5.544-11.877 8.725-19.251 8.725h-204.8c-12.371 0-22.974-8.848-25.187-21.021-2.107-11.59-51.613-286.226-51.613-490.979 0-53.622 10.842-106.254 32.226-156.435 20.686-48.544 50.168-92.398 87.627-130.349 78.176-79.198 181.077-122.816 289.747-122.816 108.672 0 211.573 43.618 289.749 122.816 37.458 37.95 66.941 81.805 87.627 130.349 21.382 50.181 32.224 102.813 32.224 156.435 0 204.754-49.504 479.389-51.613 490.979zM823.256 870.4c4.886-28.896 13.974-85.096 22.878-153.013l-157.771-0.512c-7.61 63.666-14.901 120.651-19.178 153.526h154.070zM200.742 870.4h154.104c-4.234-32.79-11.45-89.576-19.002-152.992l-158.043-0.514c8.923 68.139 18.045 124.539 22.941 153.506zM512 51.2c-194.272 0-358.4 164.126-358.4 358.4 0 80.307 8.101 173.312 17.832 256.074l158.418 0.514c-11.762-102.413-22.65-209.834-22.65-256.587 0-112.926 91.872-204.8 204.8-204.8 114.84 0 204.8 89.96 204.8 204.8 0 48.053-10.754 154.574-22.432 256.093l158.138 0.514c9.758-82.894 17.894-176.125 17.894-256.606 0-194.274-164.126-358.4-358.4-358.4z" />
<glyph unicode="&#xe62d;" glyph-name="pencil-ruler" d="M990.901 43.701l-365.898 365.899 329.696 329.694c29.944 29.944 29.944 78.667 0 108.611l-55.595 55.592c-14.464 14.466-33.75 22.432-54.304 22.432s-39.84-7.966-54.304-22.432l-329.696-329.694-365.899 365.898c-16.656 16.659-40.005 21.624-60.931 12.957-20.954-8.68-33.97-28.73-33.97-52.326v-874.731c0-42.349 34.453-76.8 76.8-76.8h874.731c23.597 0 43.646 13.018 52.325 33.97 8.669 20.926 3.706 44.274-12.955 60.931zM332.8 256h128c6.79 0 13.301 2.698 18.102 7.499l7.498 7.499 117.397-117.398h-373.397c-14.115 0-25.6 11.485-25.6 25.6v373.397l117.397-117.397-7.499-7.499c-4.8-4.8-7.498-11.312-7.498-18.101v-128c0-14.139 11.462-25.6 25.6-25.6zM450.197 307.2h-91.797v91.795l409.6 409.602 91.797-91.797-409.6-409.6zM844.8 874.73c6.878 0 13.306-2.64 18.101-7.435l55.594-55.592c9.981-9.982 9.981-26.222 0-36.203l-22.494-22.496-91.797 91.797 22.496 22.494c4.795 4.795 11.222 7.435 18.101 7.435zM956.555 2.365c-0.81-1.955-3.178-2.365-5.024-2.365h-874.731c-14.115 0-25.6 11.485-25.6 25.6v76.8h25.6c14.138 0 25.6 11.461 25.6 25.6s-11.462 25.6-25.6 25.6h-25.6v102.4h25.6c14.138 0 25.6 11.461 25.6 25.6s-11.462 25.6-25.6 25.6h-25.6v102.4h25.6c14.138 0 25.6 11.461 25.6 25.6s-11.462 25.6-25.6 25.6h-25.6v102.4h25.6c14.138 0 25.6 11.462 25.6 25.6s-11.462 25.6-25.6 25.6h-25.6v285.931c0 1.845 0.41 4.216 2.363 5.024 1.918 0.794 3.85-0.571 5.134-1.856l365.899-365.899-66.197-66.197-124.894 124.894c-24.395 24.394-45.518 19.37-53.467 16.078s-26.438-14.675-26.438-49.176v-384c0-42.347 34.453-76.8 76.8-76.8h384c34.499 0 45.883 18.49 49.176 26.438s8.317 29.072-16.078 53.466l-124.894 124.896 66.197 66.197 365.899-365.899c1.283-1.285 2.65-3.218 1.856-5.133z" />
<glyph unicode="&#xe62e;" glyph-name="pencil-ruler2" d="M998.4 665.6c0 141.158-114.84 256-256 256-38.574 0-75.664-8.374-110.234-24.89-2.701-1.29-5.048-3.010-7.050-5.013l-0.016 0.016-540.803-540.813c-3.917-3.917-6.458-8.998-7.24-14.482l-51.2-358.4c-1.139-7.976 1.542-16.026 7.242-21.722 4.834-4.834 11.362-7.499 18.099-7.499 1.203 0 2.413 0.085 3.622 0.258l358.4 51.2c5.483 0.782 10.565 3.323 14.482 7.24l540.413 540.4c0.014 0.013 0.027 0.027 0.038 0.038l0.357 0.357-0.005 0.005c2.002 2.002 3.71 4.362 5.002 7.061 16.518 34.576 24.893 71.666 24.893 110.243zM947.2 665.6c0-29.456-6.104-57.8-18.122-84.328l-58.89-58.89c-5.36 147.034-123.971 265.646-271.006 271.006l58.891 58.891c26.528 12.016 54.874 18.12 84.326 18.12 112.926 0 204.8-91.872 204.8-204.8zM102.659 153.594l21.68 151.766c9.675 1.222 19.464 1.84 29.261 1.84 127.043 0 230.4-103.357 230.4-230.4 0-9.797-0.624-19.584-1.846-29.261l-151.76-21.68c-0.141 70.374-57.36 127.594-127.734 127.734zM543.8 738.003c14.741 2.915 29.842 4.397 45 4.397 54.318 0 104.298-18.906 143.73-50.467l-398.83-398.83c-46.368 38.674-105.312 62.736-169.709 65.086l379.81 379.814zM369.904 256.899l398.829 398.83c31.562-39.432 50.467-89.411 50.467-143.73 0-15.155-1.483-30.258-4.397-45.002l-379.814-379.806c-2.349 64.395-26.413 123.339-65.085 169.707zM95.298 102.064c2.354 0.214 4.722 0.336 7.102 0.336 42.347 0 76.8-34.451 76.8-76.8 0-2.381-0.122-4.749-0.336-7.101l-97.494-13.928 13.928 97.493zM332.8 972.8h-256c-42.347 0-76.8-34.453-76.8-76.8v-512c0-14.139 11.462-25.6 25.6-25.6s25.6 11.461 25.6 25.6v128h76.8c14.138 0 25.6 11.462 25.6 25.6s-11.462 25.6-25.6 25.6h-76.8v51.2h25.6c14.138 0 25.6 11.462 25.6 25.6s-11.462 25.6-25.6 25.6h-25.6v51.2h76.8c14.138 0 25.6 11.462 25.6 25.6s-11.462 25.6-25.6 25.6h-76.8v51.2h25.6c14.138 0 25.6 11.462 25.6 25.6s-11.462 25.6-25.6 25.6h-25.6v25.6c0 14.115 11.485 25.6 25.6 25.6h256c14.115 0 25.6-11.485 25.6-25.6v-102.4c0-14.138 11.462-25.6 25.6-25.6s25.6 11.462 25.6 25.6v102.4c0 42.347-34.453 76.8-76.8 76.8z" />
<glyph unicode="&#xe62f;" glyph-name="compass" d="M537.6 307.2h-102.4c-14.138 0-25.6 11.461-25.6 25.6s11.462 25.6 25.6 25.6h102.4c14.139 0 25.6-11.461 25.6-25.6s-11.461-25.6-25.6-25.6zM793.6 409.6c-14.139 0-25.6-11.461-25.6-25.6v-25.6h-51.2c-14.139 0-25.6-11.461-25.6-25.6s11.461-25.6 25.6-25.6h51.2v-25.6c0-14.139 11.461-25.6 25.6-25.6s25.6 11.461 25.6 25.6v102.4c0 14.139-11.461 25.6-25.6 25.6zM766.509 34.211l-213.818 598.688c37.702 22.883 61.709 64.246 61.709 109.501 0 61.814-44.045 113.531-102.4 125.424v53.776h25.6c14.139 0 25.6 11.462 25.6 25.6s-11.461 25.6-25.6 25.6h-102.4c-14.138 0-25.6-11.462-25.6-25.6s11.462-25.6 25.6-25.6h25.6v-53.776c-58.355-11.893-102.4-63.61-102.4-125.424 0-45.253 24.006-86.618 61.709-109.499l-213.818-598.69c-0.987-2.765-1.491-5.677-1.491-8.611v-51.2c0-14.139 11.462-25.6 25.6-25.6s25.6 11.461 25.6 25.6v46.766l230.4 645.12 230.4-645.12v-46.766c0-14.139 11.461-25.6 25.6-25.6s25.6 11.461 25.6 25.6v51.2c0 2.934-0.504 5.846-1.491 8.611zM486.4 768c-10.819 0-20.469-6.8-24.109-16.99l-24.352-68.184c-17.555 14.331-28.339 36.077-28.339 59.574 0 42.347 34.453 76.8 76.8 76.8s76.8-34.453 76.8-76.8c0-23.498-10.784-45.243-28.341-59.573l-24.35 68.184c-3.64 10.189-13.29 16.989-24.109 16.989z" />
<glyph unicode="&#xe630;" glyph-name="aim" d="M486.4 921.6c-14.138 0-25.6-11.462-25.6-25.6v-204.8c0-14.138 11.462-25.6 25.6-25.6s25.6 11.462 25.6 25.6v204.8c0 14.138-11.462 25.6-25.6 25.6zM486.4 204.8c-14.138 0-25.6-11.461-25.6-25.6v-204.8c0-14.139 11.462-25.6 25.6-25.6s25.6 11.461 25.6 25.6v204.8c0 14.139-11.462 25.6-25.6 25.6zM256 435.2c0 14.139-11.462 25.6-25.6 25.6h-204.8c-14.138 0-25.6-11.461-25.6-25.6s11.462-25.6 25.6-25.6h204.8c14.138 0 25.6 11.461 25.6 25.6zM947.2 460.8h-204.8c-14.139 0-25.6-11.461-25.6-25.6s11.461-25.6 25.6-25.6h204.8c14.139 0 25.6 11.461 25.6 25.6s-11.461 25.6-25.6 25.6zM829.95 511.989c-11.034 0-21.218 7.19-24.525 18.304-32.162 108.062-115.875 191.774-223.936 223.931-13.552 4.034-21.267 18.286-17.234 31.838 4.032 13.554 18.29 21.267 31.837 17.235 60.787-18.090 116.75-51.482 161.835-96.566s78.478-101.046 96.568-161.834c4.034-13.55-3.683-27.805-17.234-31.838-2.434-0.726-4.894-1.070-7.312-1.070zM588.789 66.034c-11.034 0-21.218 7.189-24.525 18.302-4.034 13.552 3.683 27.806 17.234 31.838 108.056 32.162 191.766 115.87 223.925 223.925 4.034 13.554 18.291 21.267 31.837 17.234 13.552-4.034 21.267-18.288 17.234-31.837-18.090-60.784-51.482-116.744-96.565-161.829-45.085-45.083-101.042-78.475-161.827-96.566-2.434-0.722-4.893-1.067-7.312-1.067zM384.013 66.034c-2.419 0-4.875 0.346-7.312 1.070-60.784 18.090-116.742 51.48-161.826 96.563s-78.477 101.038-96.566 161.822c-4.034 13.552 3.682 27.806 17.234 31.838 13.547 4.035 27.805-3.682 31.838-17.234 32.162-108.051 115.87-191.76 223.925-223.918 13.55-4.034 21.267-18.288 17.234-31.838-3.307-11.114-13.494-18.304-24.526-18.304zM142.853 511.994c-2.418 0-4.875 0.346-7.312 1.070-13.55 4.034-21.267 18.288-17.234 31.838 18.091 60.784 51.482 116.742 96.566 161.827 45.083 45.083 101.042 78.475 161.826 96.566 13.554 4.030 27.805-3.683 31.838-17.234s-3.683-27.805-17.234-31.838c-108.056-32.158-191.765-115.869-223.923-223.925-3.31-11.115-13.496-18.306-24.528-18.306z" />
<glyph unicode="&#xe631;" glyph-name="gun" d="M998.4 768h-25.6v25.6c0 14.138-11.461 25.6-25.6 25.6s-25.6-11.462-25.6-25.6v-25.6h-742.4c-9.698 0-18.562-5.478-22.898-14.152l-51.2-102.4c-3.123-6.248-3.558-13.501-1.203-20.078 4.403-12.296 10.579-25.584 17.118-39.654 8.958-19.274 18.613-40.056 25.069-61.051 0.115-0.411 0.237-0.819 0.373-1.222 4.339-14.398 7.141-28.883 7.141-43.042 0-38.203-28.189-80.013-60.829-128.422-43.485-64.494-92.771-137.595-92.771-229.978 0-14.139 11.462-25.6 25.6-25.6h358.4c14.138 0 25.6 11.461 25.6 25.6s-11.462 25.6-25.6 25.6h-24.197c6.366 62.227 33.819 137.994 63.443 204.8h165.554c39.056 0 79.326 29.024 91.677 66.077l29.174 87.523h186.349c42.347 0 76.8 34.451 76.8 76.8v25.6h25.6c14.139 0 25.6 11.462 25.6 25.6v102.4c0 14.138-11.461 25.6-25.6 25.6zM409.6 716.8h256v-51.2h-256v51.2zM135.224 329.357c35.779 53.067 69.576 103.192 69.576 157.043 0 8.616-0.714 17.163-1.976 25.6h239.518c-40.533-73.614-123.082-236.317-133.95-358.4h-255.61c8.086 65.47 45.818 121.435 82.442 175.757zM631.904 440.667c-5.419-16.259-25.965-31.067-43.104-31.067h-141.71c22.603 46.405 43.475 83.934 54.038 102.4h11.397c2.069-21.13 8.853-49.518 29.11-68.624 4.946-4.666 11.258-6.976 17.56-6.976 6.803 0 13.592 2.696 18.629 8.035 9.701 10.286 9.227 26.488-1.059 36.187-7.411 6.99-11.026 19.651-12.656 31.376h91.574l-23.779-71.331zM972.8 665.6h-25.6c-14.139 0-25.6-11.462-25.6-25.6v-51.2c0-14.115-11.485-25.6-25.6-25.6h-204.262c-0.034 0-0.069 0-0.104 0h-502.589c-6.658 17.941-14.496 34.818-21.598 50.096-4.173 8.981-8.189 17.618-11.462 25.43l39.038 78.074h163.378v-76.8c0-14.138 11.462-25.6 25.6-25.6h307.2c14.139 0 25.6 11.462 25.6 25.6v76.8h256v-51.2zM230.4 614.4c-6.736 0-13.328 2.736-18.096 7.504-4.768 4.752-7.504 11.36-7.504 18.096s2.736 13.344 7.504 18.096c4.752 4.768 11.36 7.504 18.096 7.504s13.344-2.736 18.096-7.504c4.768-4.752 7.504-11.36 7.504-18.096s-2.736-13.328-7.504-18.096c-4.768-4.768-11.36-7.504-18.096-7.504zM179.2 204.8c-6.736 0-13.328 2.736-18.096 7.504s-7.504 11.36-7.504 18.096 2.736 13.344 7.504 18.098c4.752 4.766 11.36 7.502 18.096 7.502s13.344-2.736 18.096-7.502c4.768-4.754 7.504-11.362 7.504-18.098s-2.736-13.328-7.504-18.096c-4.768-4.768-11.36-7.504-18.096-7.504z" />
</font>
</defs>
</svg>
